<svg width="28" height="68" viewBox="0 0 28 68" fill="none" xmlns="http://www.w3.org/2000/svg">
<path d="M22.8086 0V51.6796" stroke="#F4F4F4" stroke-width="3.03059"/>
<path d="M17.8521 61.3744C14.6196 63.3719 11.8601 64.2838 9.57347 64.1101C7.29261 63.9457 5.4715 62.762 4.11011 60.5589C2.80642 58.4491 2.59123 56.3375 3.46455 54.2241C3.9068 53.1639 4.63115 52.11 5.63758 51.0624C6.6552 50.0079 7.96933 48.983 9.57998 47.9877C12.7901 46.0041 15.5271 45.0932 17.791 45.2552C20.0606 45.4264 21.8819 46.6229 23.2549 48.8447C24.5701 50.9731 24.7994 53.0825 23.9426 55.1728C23.5173 56.2354 22.7986 57.2858 21.7864 58.3241C20.7742 59.3624 19.4628 60.3791 17.8521 61.3744ZM11.4744 51.529C10.1993 52.3169 9.11845 53.0815 8.23189 53.8229C7.3565 54.5573 6.68692 55.2871 6.22313 56.0123C5.27861 57.4602 5.63758 57.5016 5.92314 59.5159C7.33714 60.5589 7.85596 60.7559 9.57347 60.5589C10.4237 60.4592 11.3702 60.1774 12.4129 59.7137C13.4725 59.2524 14.6399 58.6278 15.915 57.8399C17.1901 57.052 18.2653 56.2908 19.1407 55.5564C20.0161 54.8219 20.6829 54.1003 21.1413 53.3913C22.0411 51.971 21.7864 51.529 21.4083 49.9084C20.0178 48.8447 19.4637 48.6753 17.791 48.8447C16.9519 48.9375 16.0081 49.2111 14.9597 49.6655C13.9112 50.1199 12.7495 50.741 11.4744 51.529Z" fill="#F4F4F4"/>
</svg>
