<svg width="31" height="74" viewBox="0 0 31 74" fill="none" xmlns="http://www.w3.org/2000/svg">
<mask id="path-1-outside-1_472_484" maskUnits="userSpaceOnUse" x="-1.1322" y="45.4719" width="33.6321" height="29.5739" fill="black">
<rect fill="white" x="-1.1322" y="45.4719" width="33.6321" height="29.5739"/>
<path d="M17.1925 69.3856C13.2264 71.0097 10.1312 71.4214 7.9068 70.6207C5.68476 69.833 4.29612 67.9109 3.74089 64.8544C3.20918 61.9274 3.76733 59.2776 5.41532 56.9052C6.24617 55.7161 7.35699 54.6073 8.74777 53.5786C10.1523 52.5443 11.8426 51.6225 13.8188 50.8133C17.7574 49.2004 20.6113 49.2526 22.8173 50.033C25.0256 50.8263 26.6282 52.2958 27.1881 55.3782C27.1722 58.42 27.1813 60.9818 25.5584 63.33C24.7436 64.5264 23.6396 65.6324 22.2465 66.6482C20.8534 67.6639 19.1687 68.5764 17.1925 69.3856ZM14.2254 55.504C12.4894 56.1874 11.4043 56.6096 10.2457 57.2928C9.10073 57.9703 8.08722 58.5804 7.35752 59.3523C5.88205 60.8888 6.17778 61.1439 6.5708 63.5418C7.14902 65.3311 7.41685 66.0585 9.20757 66.2575C10.0949 66.3533 11.1451 66.2503 12.3583 65.9483C13.5875 65.6537 14.9844 65.186 16.5489 64.5454C18.1134 63.9047 19.4681 63.2457 20.613 62.5681C21.7579 61.8905 22.6896 61.1751 23.4079 60.4217C24.7657 58.9978 25.2308 58.4546 24.4945 56.4384C23.8632 54.7095 23.6634 54.1617 21.9276 53.9402C20.7705 53.7955 20.6532 53.7957 18.8139 54.1963C16.9746 54.5969 16.3805 54.6558 14.2254 55.504Z"/>
</mask>
<path d="M17.1925 69.3856C13.2264 71.0097 10.1312 71.4214 7.9068 70.6207C5.68476 69.833 4.29612 67.9109 3.74089 64.8544C3.20918 61.9274 3.76733 59.2776 5.41532 56.9052C6.24617 55.7161 7.35699 54.6073 8.74777 53.5786C10.1523 52.5443 11.8426 51.6225 13.8188 50.8133C17.7574 49.2004 20.6113 49.2526 22.8173 50.033C25.0256 50.8263 26.6282 52.2958 27.1881 55.3782C27.1722 58.42 27.1813 60.9818 25.5584 63.33C24.7436 64.5264 23.6396 65.6324 22.2465 66.6482C20.8534 67.6639 19.1687 68.5764 17.1925 69.3856ZM14.2254 55.504C12.4894 56.1874 11.4043 56.6096 10.2457 57.2928C9.10073 57.9703 8.08722 58.5804 7.35752 59.3523C5.88205 60.8888 6.17778 61.1439 6.5708 63.5418C7.14902 65.3311 7.41685 66.0585 9.20757 66.2575C10.0949 66.3533 11.1451 66.2503 12.3583 65.9483C13.5875 65.6537 14.9844 65.186 16.5489 64.5454C18.1134 63.9047 19.4681 63.2457 20.613 62.5681C21.7579 61.8905 22.6896 61.1751 23.4079 60.4217C24.7657 58.9978 25.2308 58.4546 24.4945 56.4384C23.8632 54.7095 23.6634 54.1617 21.9276 53.9402C20.7705 53.7955 20.6532 53.7957 18.8139 54.1963C16.9746 54.5969 16.3805 54.6558 14.2254 55.504Z" fill="#291D42"/>
<path d="M7.9068 70.6207L8.24548 69.6798L8.24092 69.6782L7.9068 70.6207ZM5.41532 56.9052L4.59561 56.3324L4.59402 56.3347L5.41532 56.9052ZM8.74777 53.5786L8.15478 52.7734L8.1531 52.7746L8.74777 53.5786ZM22.8173 50.033L23.1554 49.0918L23.1508 49.0902L22.8173 50.033ZM27.1881 55.3782L28.1881 55.3835L28.1886 55.2907L28.172 55.1995L27.1881 55.3782ZM25.5584 63.33L24.7357 62.7615L24.7319 62.7671L25.5584 63.33ZM14.2254 55.504L14.5917 56.4346L14.2254 55.504ZM10.2457 57.2928L9.73775 56.4314L9.73637 56.4322L10.2457 57.2928ZM7.35752 59.3523L8.07883 60.045L8.08422 60.0393L7.35752 59.3523ZM6.5708 63.5418L5.58397 63.7035L5.59613 63.7777L5.61925 63.8493L6.5708 63.5418ZM9.20757 66.2575L9.09712 67.2514L9.10019 67.2517L9.20757 66.2575ZM12.3583 65.9483L12.1252 64.9758L12.1168 64.9779L12.3583 65.9483ZM23.4079 60.4217L22.6842 59.7317L23.4079 60.4217ZM24.4945 56.4384L23.5552 56.7815L24.4945 56.4384ZM21.9276 53.9402L22.0542 52.9483L22.0517 52.9479L21.9276 53.9402ZM16.8136 68.4602C12.9095 70.0589 10.1099 70.3509 8.24547 69.6798L7.56812 71.5617C10.1525 72.4919 13.5434 71.9605 17.5715 70.311L16.8136 68.4602ZM8.24092 69.6782C6.46385 69.0483 5.23926 67.5078 4.72479 64.6756L2.75699 65.0331C3.35298 68.314 4.90566 70.6178 7.57267 71.5633L8.24092 69.6782ZM4.72479 64.6756C4.23898 62.0013 4.7452 59.6227 6.23661 57.4757L4.59402 56.3347C2.78945 58.9325 2.17938 61.8534 2.75699 65.0331L4.72479 64.6756ZM6.23502 57.478C6.99325 56.3929 8.02241 55.3589 9.34243 54.3826L8.1531 52.7746C6.69157 53.8556 5.49909 55.0394 4.59561 56.3324L6.23502 57.478ZM9.34075 54.3838C10.6663 53.4076 12.2813 52.5235 14.1977 51.7387L13.4399 49.8878C11.4039 50.7215 9.63823 51.6809 8.15478 52.7734L9.34075 54.3838ZM14.1977 51.7387C17.9604 50.1979 20.5568 50.294 22.4838 50.9757L23.1508 49.0902C20.6659 48.2112 17.5545 48.2029 13.4399 49.8878L14.1977 51.7387ZM22.4792 50.9741C23.4696 51.3299 24.2622 51.8143 24.8688 52.5063C25.4738 53.1966 25.95 54.1574 26.2042 55.557L28.172 55.1995C27.8663 53.5166 27.2612 52.2015 26.3729 51.188C25.4861 50.1764 24.3734 49.5294 23.1554 49.0919L22.4792 50.9741ZM26.1881 55.373C26.1719 58.4768 26.1536 60.7099 24.7357 62.7615L26.381 63.8986C28.2089 61.2536 28.1725 58.3631 28.1881 55.3835L26.1881 55.373ZM24.7319 62.7671C23.9926 63.8526 22.9751 64.8793 21.6574 65.8401L22.8357 67.4562C24.3041 66.3855 25.4946 65.2001 26.3849 63.8929L24.7319 62.7671ZM21.6574 65.8401C20.3426 66.7988 18.7322 67.6746 16.8136 68.4602L17.5715 70.311C19.6053 69.4782 21.3642 68.5291 22.8357 67.4562L21.6574 65.8401ZM13.8592 54.5735C12.1408 55.2499 10.9774 55.7004 9.73775 56.4314L10.7536 58.1542C11.8312 57.5187 12.8379 57.1248 14.5917 56.4346L13.8592 54.5735ZM9.73637 56.4322C8.61922 57.0933 7.47485 57.7725 6.63082 58.6654L8.08422 60.0393C8.69959 59.3883 9.58223 58.8474 10.7549 58.1534L9.73637 56.4322ZM6.63624 58.6597C5.88536 59.4416 5.37049 60.1003 5.26953 61.0142C5.2237 61.429 5.26949 61.8417 5.33233 62.2454C5.38776 62.6016 5.49844 63.1817 5.58397 63.7035L7.55763 63.38C7.44665 62.7029 7.37299 62.3519 7.30854 61.9379C7.2515 61.5714 7.24188 61.3746 7.25743 61.2338C7.27922 61.0366 7.35421 60.7995 8.0788 60.045L6.63624 58.6597ZM5.61925 63.8493C5.88808 64.6812 6.15327 65.5281 6.67015 66.1408C7.26557 66.8466 8.07395 67.1377 9.09712 67.2514L9.31803 65.2636C8.55047 65.1783 8.32957 65.0062 8.19884 64.8512C7.98957 64.6031 7.83174 64.1917 7.52235 63.2343L5.61925 63.8493ZM9.10019 67.2517C10.1409 67.3641 11.3149 67.2385 12.5998 66.9187L12.1168 64.9779C10.9754 65.262 10.0489 65.3425 9.31496 65.2633L9.10019 67.2517ZM12.5914 66.9208C13.8838 66.611 15.3307 66.1248 16.9278 65.4708L16.1699 63.62C14.6381 64.2472 13.2913 64.6963 12.1252 64.9758L12.5914 66.9208ZM16.9278 65.4708C18.5259 64.8164 19.9261 64.1366 21.1223 63.4287L20.1037 61.7075C19.01 62.3547 17.7008 62.9931 16.1699 63.62L16.9278 65.4708ZM21.1223 63.4287C22.3254 62.7167 23.3352 61.947 24.1316 61.1118L22.6842 59.7317C22.0439 60.4032 21.1904 61.0644 20.1037 61.7075L21.1223 63.4287ZM24.1316 61.1118C24.7634 60.4492 25.4028 59.7922 25.6824 58.9764C25.9894 58.0811 25.8264 57.1703 25.4339 56.0954L23.5552 56.7815C23.8989 57.7227 23.8715 58.0916 23.7905 58.3279C23.6822 58.6438 23.4101 58.9703 22.6842 59.7317L24.1316 61.1118ZM25.4339 56.0954C25.1462 55.3076 24.874 54.5115 24.3655 53.9517C23.7784 53.3053 23.0014 53.0691 22.0542 52.9483L21.801 54.9322C22.5896 55.0328 22.7804 55.1812 22.885 55.2964C23.0682 55.498 23.2115 55.8403 23.5552 56.7815L25.4339 56.0954ZM22.0517 52.9479C21.4821 52.8767 21.0672 52.8257 20.5475 52.8669C20.0617 52.9054 19.4993 53.0236 18.6011 53.2192L19.0268 55.1734C19.9679 54.9684 20.3838 54.8862 20.7057 54.8606C20.9937 54.8378 21.2159 54.859 21.8035 54.9325L22.0517 52.9479ZM18.6011 53.2192C16.7688 53.6183 16.0995 53.6917 13.8592 54.5735L14.5917 56.4346C16.6616 55.6198 17.1805 55.5755 19.0268 55.1734L18.6011 53.2192Z" fill="#291D42" mask="url(#path-1-outside-1_472_484)"/>
<path d="M26.8691 0.748413V56.6647" stroke="#291D42" stroke-width="3.03059"/>
</svg>
