<svg width="33" height="54" viewBox="0 0 33 54" fill="none" xmlns="http://www.w3.org/2000/svg">
<path fill-rule="evenodd" clip-rule="evenodd" d="M29.4721 2.23614C28.7048 5.94187 26.3698 11.5437 21.4406 13.2049C20.5013 13.5214 19.7566 12.5238 19.9591 11.5535C20.5909 8.52517 19.8963 4.76048 13.9872 4.76048C6.66317 4.76048 5.75019 9.80564 6.21545 12.4197C6.22688 12.4839 6.24332 12.544 6.26645 12.605C6.94597 14.3973 9.37575 17.81 13.9872 17.81C16.7355 17.81 19.5747 16.8576 21.8352 15.7899C22.9974 15.241 24.5096 16.4578 24.073 17.6666L21.717 24.1911C21.683 24.2851 21.6386 24.375 21.5832 24.4583C20.04 26.7795 17.8134 28.7155 14.7142 29.1907C14.4295 29.2343 14.219 28.9428 14.3193 28.6727C15.4685 25.5796 15.7277 20.3776 8.78162 20.3776C1.39403 20.3776 0.529248 25.5107 1.0223 28.1043C1.02584 28.123 1.03045 28.1398 1.03693 28.1577C1.68179 29.9312 4.11426 33.4271 8.78162 33.4271C11.3944 33.4271 14.0893 32.5664 16.2909 31.5641C17.4324 31.0445 18.8269 32.1944 18.4009 33.374L11.8127 51.6183C11.5567 52.3271 11.9546 53.1046 12.6793 53.3116L12.8007 53.3463C13.466 53.5364 14.1612 53.1797 14.387 52.5257C16.6862 45.8654 20.5198 34.9065 24.0408 24.8412C27.4931 14.9723 30.645 5.96247 31.7553 2.70566C31.9723 2.06928 31.5839 1.41636 30.9288 1.26517C30.2627 1.11146 29.6107 1.56677 29.4721 2.23614Z" fill="#291D42"/>
<path d="M21.4406 13.2049L21.3128 12.8256L21.3128 12.8256L21.4406 13.2049ZM29.4721 2.23614L29.0802 2.15499L29.0802 2.15499L29.4721 2.23614ZM19.9591 11.5535L19.5672 11.4718L19.5672 11.4718L19.9591 11.5535ZM6.21545 12.4197L6.60951 12.3496L6.60951 12.3496L6.21545 12.4197ZM6.26645 12.605L5.89219 12.7469L5.89219 12.7469L6.26645 12.605ZM21.8352 15.7899L22.0061 16.1518L22.0061 16.1518L21.8352 15.7899ZM24.073 17.6666L24.4495 17.8026L24.4495 17.8026L24.073 17.6666ZM14.7142 29.1907L14.7749 29.5863L14.7749 29.5863L14.7142 29.1907ZM14.3193 28.6727L14.6945 28.8121L14.6945 28.8121L14.3193 28.6727ZM1.0223 28.1043L1.4155 28.0296L1.4155 28.0296L1.0223 28.1043ZM1.03693 28.1577L1.41308 28.0209L1.41308 28.0209L1.03693 28.1577ZM11.8127 51.6183L11.4363 51.4823L11.4363 51.4823L11.8127 51.6183ZM12.6793 53.3116L12.5693 53.6965L12.5693 53.6965L12.6793 53.3116ZM12.8007 53.3463L12.9107 52.9615L12.9107 52.9615L12.8007 53.3463ZM14.387 52.5257L14.0086 52.3951L14.0086 52.3951L14.387 52.5257ZM24.0408 24.8412L24.4186 24.9733L24.4186 24.9733L24.0408 24.8412ZM31.7553 2.70566L31.3765 2.5765L31.3765 2.5765L31.7553 2.70566ZM30.9288 1.26517L31.0188 0.875172L31.0188 0.875172L30.9288 1.26517ZM18.4009 33.374L18.0245 33.2381L18.4009 33.374ZM21.717 24.1911L21.3405 24.0552L21.717 24.1911ZM21.5832 24.4583L21.9166 24.6798L21.5832 24.4583ZM21.5684 13.5841C24.1481 12.7148 26.0294 10.8206 27.3564 8.69949C28.6832 6.57868 29.4732 4.2046 29.864 2.3173L29.0802 2.15499C28.7036 3.97342 27.9426 6.25312 26.6777 8.27494C25.4131 10.2965 23.6623 12.0338 21.3128 12.8256L21.5684 13.5841ZM19.5672 11.4718C19.4413 12.0756 19.607 12.693 19.9653 13.1193C20.3328 13.5566 20.9196 13.8028 21.5684 13.5841L21.3128 12.8256C21.0223 12.9235 20.7671 12.8291 20.5781 12.6042C20.3798 12.3683 20.2744 12.0017 20.3509 11.6353L19.5672 11.4718ZM13.9872 5.16073C16.8563 5.16073 18.3515 6.06947 19.0875 7.23506C19.8406 8.42774 19.8738 10.0024 19.5672 11.4718L20.3509 11.6353C20.6761 10.0763 20.6779 8.25444 19.7644 6.80768C18.8338 5.33383 17.0272 4.36023 13.9872 4.36023V5.16073ZM6.60951 12.3496C6.38955 11.1137 6.50043 9.31364 7.51077 7.83569C8.50511 6.38113 10.4248 5.16073 13.9872 5.16073V4.36023C10.2256 4.36023 8.02676 5.66241 6.84992 7.38394C5.68907 9.08208 5.57609 11.1116 5.82139 12.4898L6.60951 12.3496ZM6.6407 12.4631C6.62659 12.4259 6.61668 12.3899 6.60951 12.3496L5.82139 12.4898C5.83708 12.578 5.86005 12.6621 5.89219 12.7469L6.6407 12.4631ZM13.9872 17.4097C9.60194 17.4097 7.2858 14.1647 6.6407 12.4631L5.89219 12.7469C6.60613 14.63 9.14956 18.2102 13.9872 18.2102V17.4097ZM21.6643 15.428C19.4294 16.4836 16.6518 17.4097 13.9872 17.4097V18.2102C16.8192 18.2102 19.7201 17.2316 22.0061 16.1518L21.6643 15.428ZM24.4495 17.8026C24.7412 16.9948 24.3671 16.2213 23.8083 15.7604C23.2509 15.3005 22.4185 15.0718 21.6643 15.428L22.0061 16.1518C22.4141 15.9591 22.9189 16.0643 23.2989 16.3779C23.6777 16.6903 23.8414 17.1296 23.6966 17.5307L24.4495 17.8026ZM22.0934 24.3271L24.4495 17.8026L23.6966 17.5307L21.3405 24.0552L22.0934 24.3271ZM14.7749 29.5863C18.0199 29.0888 20.3333 27.0613 21.9166 24.6798L21.2499 24.2367C19.7467 26.4978 17.607 28.3423 14.6536 28.7951L14.7749 29.5863ZM13.9441 28.5333C13.7528 29.0481 14.1457 29.6828 14.7749 29.5863L14.6536 28.7951C14.6549 28.7949 14.6585 28.7945 14.6637 28.7952C14.6688 28.7959 14.6738 28.7973 14.6784 28.7993C14.6876 28.8033 14.6917 28.8081 14.6929 28.8096C14.694 28.8111 14.6941 28.8118 14.6941 28.8121C14.6943 28.8133 14.6939 28.8137 14.6945 28.8121L13.9441 28.5333ZM8.78162 20.7779C10.4707 20.7779 11.6827 21.0944 12.5397 21.5859C13.3906 22.074 13.9148 22.7474 14.2134 23.511C14.8206 25.0636 14.505 27.0237 13.9441 28.5333L14.6945 28.8121C15.2828 27.2287 15.6714 25.0412 14.959 23.2195C14.5978 22.296 13.9562 21.4756 12.938 20.8916C11.926 20.3111 10.5656 19.9774 8.78162 19.9774V20.7779ZM1.4155 28.0296C1.18264 26.8047 1.27543 24.988 2.27914 23.4913C3.26635 22.0192 5.18868 20.7779 8.78162 20.7779V19.9774C4.98697 19.9774 2.78311 21.3026 1.6143 23.0454C0.461983 24.7637 0.368898 26.8104 0.629088 28.1791L1.4155 28.0296ZM1.41308 28.0209C1.41335 28.0216 1.41392 28.0233 1.41452 28.0255C1.41512 28.0277 1.41543 28.0292 1.4155 28.0296L0.629088 28.1791C0.63656 28.2184 0.646809 28.256 0.660776 28.2944L1.41308 28.0209ZM8.78162 33.0269C4.34296 33.0269 2.02424 29.7017 1.41308 28.0209L0.660771 28.2944C1.33934 30.1607 3.88556 33.8274 8.78162 33.8274V33.0269ZM16.1251 31.1998C13.9495 32.1902 11.3142 33.0269 8.78162 33.0269V33.8274C11.4746 33.8274 14.229 32.9425 16.4568 31.9284L16.1251 31.1998ZM12.1892 51.7542L18.7774 33.5099L18.0245 33.2381L11.4363 51.4823L12.1892 51.7542ZM12.7892 52.9268C12.2874 52.7834 12.0119 52.2451 12.1892 51.7542L11.4363 51.4823C11.1016 52.4092 11.6217 53.4257 12.5693 53.6965L12.7892 52.9268ZM12.9107 52.9615L12.7892 52.9268L12.5693 53.6965L12.6907 53.7312L12.9107 52.9615ZM14.0086 52.3951C13.8531 52.8455 13.374 53.0939 12.9107 52.9615L12.6907 53.7312C13.5579 53.9789 14.4693 53.5138 14.7653 52.6563L14.0086 52.3951ZM23.663 24.709C20.1421 34.774 16.3082 45.7338 14.0086 52.3951L14.7653 52.6563C17.0642 45.997 20.8975 35.039 24.4186 24.9733L23.663 24.709ZM31.3765 2.5765C30.2668 5.83135 27.1158 14.8389 23.663 24.709L24.4186 24.9733C27.8705 15.1057 31.0231 6.09359 32.1342 2.83482L31.3765 2.5765ZM30.8388 1.65517C31.2771 1.75631 31.5123 2.17812 31.3765 2.5765L32.1342 2.83482C32.4323 1.96044 31.8908 1.07641 31.0188 0.875172L30.8388 1.65517ZM29.864 2.3173C29.961 1.84911 30.4098 1.55617 30.8388 1.65517L31.0188 0.875172C30.1157 0.666762 29.2604 1.28443 29.0802 2.15499L29.864 2.3173ZM16.4568 31.9284C16.8604 31.7447 17.3317 31.8474 17.6755 32.1376C18.0171 32.4262 18.1678 32.8413 18.0245 33.2381L18.7774 33.5099C19.0601 32.7271 18.7264 31.9775 18.192 31.5261C17.6595 31.0764 16.8629 30.864 16.1251 31.1998L16.4568 31.9284ZM21.3405 24.0552C21.3168 24.1209 21.2864 24.1818 21.2499 24.2367L21.9166 24.6798C21.9908 24.5682 22.0493 24.4493 22.0934 24.3271L21.3405 24.0552Z" fill="#291D42"/>
</svg>
