<svg width="36" height="60" viewBox="0 0 36 60" fill="none" xmlns="http://www.w3.org/2000/svg">
<path d="M20.0742 0.693848V45.4652" stroke="#F4F4F4" stroke-width="2.62548"/>
<path d="M3.02619 47.6718L3.02611 47.672L8.38228 56.2629L8.37704 56.3318C8.37707 56.3318 8.37709 56.3318 8.37711 56.3318C10.3794 56.4839 12.7852 55.6852 15.5906 53.9517C16.9894 53.0873 18.1303 52.2031 19.0121 51.2986C19.8936 50.3944 20.5221 49.477 20.8947 48.5462C21.6461 46.7126 21.4431 44.8621 20.2936 43.0018C19.0945 41.0614 17.4983 40.0098 15.5065 39.8595L15.5062 39.8595C13.5237 39.7177 11.1375 40.5154 8.35159 42.2369C6.95269 43.1014 5.80935 43.9927 4.9228 44.9114L4.92269 44.9115C4.04637 45.8237 3.41337 46.7437 3.02619 47.6718Z" fill="#F4F4F4" stroke="#F4F4F4" stroke-width="0.138183"/>
<path fill-rule="evenodd" clip-rule="evenodd" d="M20.2146 1.17662L19.5803 0.844238V6.26825L19.8581 6.375C27.8203 9.43499 30.6604 13.2912 31.132 16.7519C31.6087 20.2499 29.698 23.5408 27.7394 25.5121L26.5109 26.6834L28.2386 26.2058C29.4042 25.6298 31.1275 24.4355 32.5641 22.7035C34.0035 20.968 35.1742 18.6683 35.1742 15.894C35.1742 14.4412 34.5035 12.9555 33.4822 11.531C32.4568 10.1007 31.0473 8.68964 29.4983 7.37681C26.3996 4.75074 22.6892 2.4735 20.2146 1.17662Z" fill="#F4F4F4"/>
<path d="M19.5803 0.844238L19.7814 0.460569L19.1472 0.128192V0.844238H19.5803ZM20.2146 1.17662L20.0135 1.56029L20.2146 1.17662ZM19.5803 6.26825H19.1472V6.56583L19.4249 6.67258L19.5803 6.26825ZM19.8581 6.375L20.0135 5.97067L20.0135 5.97067L19.8581 6.375ZM31.132 16.7519L31.5612 16.6934L31.5612 16.6934L31.132 16.7519ZM27.7394 25.5121L28.0384 25.8257L28.0467 25.8174L27.7394 25.5121ZM26.5109 26.6834L26.212 26.3699L26.6264 27.1009L26.5109 26.6834ZM28.2386 26.2058L28.354 26.6233L28.3936 26.6123L28.4305 26.5941L28.2386 26.2058ZM32.5641 22.7035L32.8975 22.98L32.8975 22.98L32.5641 22.7035ZM33.4822 11.531L33.8343 11.2786L33.8343 11.2786L33.4822 11.531ZM29.4983 7.37681L29.7783 7.04635L29.7783 7.04635L29.4983 7.37681ZM19.3793 1.22791L20.0135 1.56029L20.4156 0.792946L19.7814 0.460569L19.3793 1.22791ZM20.0135 6.26825V0.844238H19.1472V6.26825H20.0135ZM20.0135 5.97067L19.7357 5.86392L19.4249 6.67258L19.7027 6.77934L20.0135 5.97067ZM31.5612 16.6934C31.0592 13.0091 28.0469 9.05803 20.0135 5.97067L19.7027 6.77934C27.5937 9.81195 30.2617 13.5733 30.7028 16.8104L31.5612 16.6934ZM28.0467 25.8174C30.0551 23.7959 32.0633 20.3778 31.5612 16.6934L30.7028 16.8104C31.1541 20.122 29.3408 23.2857 27.4321 25.2068L28.0467 25.8174ZM26.8098 26.9969L28.0383 25.8256L27.4405 25.1986L26.212 26.3699L26.8098 26.9969ZM28.1231 25.7883L26.3955 26.2659L26.6264 27.1009L28.354 26.6233L28.1231 25.7883ZM32.2307 22.4269C30.836 24.1084 29.1624 25.2661 28.0467 25.8174L28.4305 26.5941C29.6461 25.9934 31.419 24.7625 32.8975 22.98L32.2307 22.4269ZM34.741 15.894C34.741 18.5402 33.6253 20.7454 32.2307 22.4269L32.8975 22.98C34.3817 21.1906 35.6074 18.7964 35.6074 15.894H34.741ZM33.1302 11.7834C34.1274 13.1743 34.741 14.5709 34.741 15.894H35.6074C35.6074 14.3115 34.8796 12.7367 33.8343 11.2786L33.1302 11.7834ZM29.2182 7.70726C30.7523 9.0074 32.133 10.3925 33.1302 11.7834L33.8343 11.2786C32.7806 9.80889 31.3424 8.37188 29.7783 7.04635L29.2182 7.70726ZM20.0135 1.56029C22.4681 2.84665 26.15 5.10697 29.2182 7.70726L29.7783 7.04635C26.6492 4.39451 22.9104 2.10035 20.4156 0.792946L20.0135 1.56029Z" fill="#F4F4F4"/>
</svg>
