<svg width="50" height="75" viewBox="0 0 50 75" fill="none" xmlns="http://www.w3.org/2000/svg">
<mask id="path-1-outside-1_472_486" maskUnits="userSpaceOnUse" x="-0.379275" y="46.4932" width="33.6321" height="29.5739" fill="black">
<rect fill="white" x="-0.379275" y="46.4932" width="33.6321" height="29.5739"/>
<path d="M17.9246 70.3906C13.9633 72.0126 10.8719 72.4238 8.65022 71.6242C6.4309 70.8374 5.04397 68.9177 4.48942 65.8649C3.95837 62.9414 4.51583 60.2949 6.16179 57.9254C6.99163 56.7378 8.10108 55.6303 9.49015 54.6029C10.8929 53.5699 12.5812 52.6492 14.555 51.841C18.4888 50.2301 21.3392 50.2822 23.5424 51.0616C25.748 51.854 27.3486 53.3217 27.9079 56.4004C27.892 59.4383 27.901 61.997 26.2801 64.3424C25.4663 65.5373 24.3637 66.642 22.9723 67.6565C21.5809 68.671 19.8983 69.5823 17.9246 70.3906ZM14.9611 56.526C13.2272 57.2085 12.1434 57.6302 10.9862 58.3125C9.84268 58.9893 8.83041 59.5986 8.10161 60.3696C6.62796 61.9042 6.92332 62.1589 7.31586 64.5539C7.89337 66.341 8.16086 67.0675 9.94939 67.2662C10.8356 67.362 11.8846 67.259 13.0963 66.9574C14.324 66.6632 15.7191 66.1961 17.2817 65.5563C18.8442 64.9164 20.1973 64.2581 21.3408 63.5814C22.4843 62.9047 23.4148 62.1901 24.1323 61.4377C25.4884 60.0155 25.9529 59.4729 25.2176 57.4593C24.587 55.7324 24.3875 55.1853 22.6538 54.9641C21.4981 54.8196 21.381 54.8198 19.544 55.2199C17.7069 55.62 17.1135 55.6788 14.9611 56.526Z"/>
</mask>
<path d="M17.9246 70.3906C13.9633 72.0126 10.8719 72.4238 8.65022 71.6242C6.4309 70.8374 5.04397 68.9177 4.48942 65.8649C3.95837 62.9414 4.51583 60.2949 6.16179 57.9254C6.99163 56.7378 8.10108 55.6303 9.49015 54.6029C10.8929 53.5699 12.5812 52.6492 14.555 51.841C18.4888 50.2301 21.3392 50.2822 23.5424 51.0616C25.748 51.854 27.3486 53.3217 27.9079 56.4004C27.892 59.4383 27.901 61.997 26.2801 64.3424C25.4663 65.5373 24.3637 66.642 22.9723 67.6565C21.5809 68.671 19.8983 69.5823 17.9246 70.3906ZM14.9611 56.526C13.2272 57.2085 12.1434 57.6302 10.9862 58.3125C9.84268 58.9893 8.83041 59.5986 8.10161 60.3696C6.62796 61.9042 6.92332 62.1589 7.31586 64.5539C7.89337 66.341 8.16086 67.0675 9.94939 67.2662C10.8356 67.362 11.8846 67.259 13.0963 66.9574C14.324 66.6632 15.7191 66.1961 17.2817 65.5563C18.8442 64.9164 20.1973 64.2581 21.3408 63.5814C22.4843 62.9047 23.4148 62.1901 24.1323 61.4377C25.4884 60.0155 25.9529 59.4729 25.2176 57.4593C24.587 55.7324 24.3875 55.1853 22.6538 54.9641C21.4981 54.8196 21.381 54.8198 19.544 55.2199C17.7069 55.62 17.1135 55.6788 14.9611 56.526Z" fill="#291D42"/>
<path d="M17.9246 70.3906L18.3035 71.316L17.9246 70.3906ZM8.65022 71.6242L8.98889 70.6832L8.98434 70.6816L8.65022 71.6242ZM6.16179 57.9254L5.34208 57.3526L5.3405 57.3549L6.16179 57.9254ZM9.49015 54.6029L8.89717 53.7977L8.89549 53.7989L9.49015 54.6029ZM23.5424 51.0616L23.8805 50.1205L23.8759 50.1189L23.5424 51.0616ZM27.9079 56.4004L28.9078 56.4056L28.9083 56.3129L28.8918 56.2216L27.9079 56.4004ZM26.2801 64.3424L25.4575 63.7738L25.4536 63.7795L26.2801 64.3424ZM14.9611 56.526L15.3273 57.4565L14.9611 56.526ZM10.9862 58.3125L10.4783 57.4511L10.4769 57.4519L10.9862 58.3125ZM8.10161 60.3696L8.82292 61.0622L8.82831 61.0565L8.10161 60.3696ZM7.31586 64.5539L6.32903 64.7156L6.34119 64.7898L6.36431 64.8614L7.31586 64.5539ZM9.94939 67.2662L9.83894 68.2601L9.84201 68.2605L9.94939 67.2662ZM13.0963 66.9574L12.8632 65.9849L12.8547 65.987L13.0963 66.9574ZM24.1323 61.4377L23.4085 60.7476L24.1323 61.4377ZM25.2176 57.4593L24.2783 57.8023L25.2176 57.4593ZM22.6538 54.9641L22.7804 53.9721L22.7779 53.9718L22.6538 54.9641ZM17.5456 69.4651C13.6464 71.0618 10.8506 71.3534 8.98889 70.6833L8.31154 72.5651C10.8931 73.4943 14.2802 72.9635 18.3035 71.316L17.5456 69.4651ZM8.98434 70.6816C7.21 70.0526 5.98711 68.5146 5.47332 65.6861L3.50552 66.0436C4.10083 69.3207 5.65181 71.6222 8.31609 72.5667L8.98434 70.6816ZM5.47332 65.6861C4.98817 63.0154 5.4937 60.64 6.98309 58.4959L5.3405 57.3549C3.53795 59.9499 2.92857 62.8675 3.50552 66.0436L5.47332 65.6861ZM6.9815 58.4982C7.73871 57.4146 8.7665 56.382 10.0848 55.4069L8.89549 53.7989C7.43566 54.8787 6.24455 56.0611 5.34209 57.3526L6.9815 58.4982ZM10.0831 55.4081C11.407 54.4332 13.0199 53.5502 14.9339 52.7664L14.176 50.9156C12.1425 51.7483 10.3789 52.7065 8.89717 53.7977L10.0831 55.4081ZM14.9339 52.7664C18.6917 51.2276 21.2846 51.3237 23.2089 52.0044L23.8759 50.1189C21.3937 49.2408 18.2859 49.2326 14.176 50.9156L14.9339 52.7664ZM23.2043 52.0028C24.1933 52.3581 24.9848 52.8418 25.5905 53.5328C26.1946 54.222 26.6701 55.1814 26.924 56.5791L28.8918 56.2216C28.5864 54.5406 27.9819 53.2269 27.0945 52.2145C26.2087 51.2039 25.0971 50.5576 23.8805 50.1205L23.2043 52.0028ZM26.9079 56.3951C26.8917 59.4952 26.8734 61.7251 25.4575 63.7738L27.1028 64.9109C28.9287 62.2689 28.8923 59.3815 28.9078 56.4056L26.9079 56.3951ZM25.4536 63.7795C24.7153 64.8635 23.6992 65.8889 22.3832 66.8484L23.5615 68.4645C25.0282 67.395 26.2174 66.211 27.1067 64.9053L25.4536 63.7795ZM22.3832 66.8484C21.0701 67.8058 19.4617 68.6805 17.5456 69.4651L18.3035 71.316C20.3349 70.4841 22.0917 69.5361 23.5615 68.4645L22.3832 66.8484ZM14.5948 55.5955C12.8786 56.271 11.7165 56.721 10.4783 57.4511L11.4941 59.1739C12.5704 58.5394 13.5757 58.146 15.3273 57.4565L14.5948 55.5955ZM10.4769 57.4519C9.36117 58.1122 8.21804 58.7907 7.37492 59.6826L8.82831 61.0565C9.44279 60.4065 10.3242 59.8663 11.4955 59.1731L10.4769 57.4519ZM7.38033 59.6769C6.63036 60.4579 6.11585 61.116 6.01496 62.0293C5.96917 62.4438 6.01493 62.856 6.07769 63.2593C6.13305 63.615 6.24362 64.1945 6.32903 64.7156L8.30269 64.3921C8.19183 63.7158 8.11828 63.3654 8.0539 62.9517C7.99694 62.5857 7.98736 62.3893 8.00287 62.2489C8.02458 62.0524 8.09921 61.8158 8.8229 61.0622L7.38033 59.6769ZM6.36431 64.8614C6.63279 65.6922 6.89771 66.5383 7.41415 67.1505C8.00912 67.8558 8.81687 68.1465 9.83894 68.2601L10.0598 66.2724C9.29339 66.1872 9.07312 66.0153 8.94284 65.8609C8.73402 65.6133 8.57644 65.2027 8.26741 64.2464L6.36431 64.8614ZM9.84201 68.2605C10.8816 68.3728 12.0543 68.2473 13.3378 67.9278L12.8547 65.987C11.7149 66.2708 10.7896 66.3512 10.0568 66.272L9.84201 68.2605ZM13.3293 67.9299C14.6202 67.6205 16.0654 67.1349 17.6606 66.4817L16.9027 64.6308C15.3728 65.2573 14.0278 65.7058 12.8632 65.985L13.3293 67.9299ZM17.6606 66.4817C19.2568 65.8281 20.6554 65.149 21.8501 64.442L20.8315 62.7208C19.7392 63.3672 18.4317 64.0047 16.9027 64.6308L17.6606 66.4817ZM21.8501 64.442C23.0518 63.7308 24.0605 62.962 24.856 62.1278L23.4085 60.7476C22.7691 61.4182 21.9168 62.0785 20.8315 62.7208L21.8501 64.442ZM24.856 62.1278C25.487 61.4661 26.1258 60.8096 26.4052 59.9945C26.7119 59.0998 26.549 58.1899 26.1569 57.1162L24.2783 57.8023C24.6215 58.7423 24.594 59.1104 24.5133 59.346C24.4052 59.6612 24.1337 59.9871 23.4085 60.7476L24.856 62.1278ZM26.1569 57.1162C25.8696 56.3294 25.5977 55.5341 25.0896 54.9747C24.5029 54.3288 23.7266 54.0929 22.7804 53.9721L22.5272 55.9561C23.3148 56.0565 23.505 56.2047 23.6091 56.3194C23.7919 56.5206 23.935 56.8622 24.2783 57.8023L26.1569 57.1162ZM22.7779 53.9718C22.2091 53.9007 21.7945 53.8497 21.2753 53.8909C20.79 53.9294 20.2282 54.0474 19.3312 54.2428L19.7568 56.197C20.6968 55.9922 21.1121 55.9101 21.4335 55.8846C21.721 55.8618 21.9429 55.883 22.5297 55.9564L22.7779 53.9718ZM19.3312 54.2428C17.5011 54.6414 16.8325 54.7147 14.5948 55.5955L15.3273 57.4565C17.3946 56.6428 17.9128 56.5986 19.7568 56.197L19.3312 54.2428Z" fill="#291D42" mask="url(#path-1-outside-1_472_486)"/>
<mask id="path-3-outside-2_472_486" maskUnits="userSpaceOnUse" x="3.21814" y="50.4885" width="26.0024" height="20.5609" fill="black">
<rect fill="white" x="3.21814" y="50.4885" width="26.0024" height="20.5609"/>
<path d="M9.78053 67.633C11.447 68.0518 13.8398 67.6312 16.9589 66.3713C18.513 65.7435 19.8487 65.062 20.9659 64.3266C22.083 63.5913 22.9829 62.8105 23.6654 61.9844C25.0232 60.3617 25.1403 58.6777 25.2997 56.6768C25.0197 54.677 23.8623 53.7883 22.2078 53.3736C20.5544 52.9672 18.3691 53.0711 15.2716 54.3223C13.7175 54.95 12.377 55.638 11.2502 56.3861C10.1342 57.1298 9.22899 57.9128 8.53449 58.7348C7.15627 60.3746 6.60012 62.144 6.86603 64.0429C7.14372 66.0259 8.11522 67.2226 9.78053 67.633Z"/>
</mask>
<path d="M9.78053 67.633C11.447 68.0518 13.8398 67.6312 16.9589 66.3713C18.513 65.7435 19.8487 65.062 20.9659 64.3266C22.083 63.5913 22.9829 62.8105 23.6654 61.9844C25.0232 60.3617 25.1403 58.6777 25.2997 56.6768C25.0197 54.677 23.8623 53.7883 22.2078 53.3736C20.5544 52.9672 18.3691 53.0711 15.2716 54.3223C13.7175 54.95 12.377 55.638 11.2502 56.3861C10.1342 57.1298 9.22899 57.9128 8.53449 58.7348C7.15627 60.3746 6.60012 62.144 6.86603 64.0429C7.14372 66.0259 8.11522 67.2226 9.78053 67.633Z" fill="#291D42"/>
<path d="M15.3563 57.387L15.4837 57.8108L15.4837 57.8108L15.3563 57.387ZM15.2723 57.4199L15.3997 57.8436L15.3997 57.8436L15.2723 57.4199ZM12.2187 58.7559L12.0099 58.3702L12.0091 58.3706L12.2187 58.7559ZM9.90494 60.25L10.2432 60.5441L10.2466 60.541L9.90494 60.25ZM9.09902 63.0428L8.57248 63.1815L8.57647 63.2151L8.58629 63.2467L9.09902 63.0428ZM10.9889 64.7009L10.8657 65.1696L10.8672 65.1696L10.9889 64.7009ZM13.4193 64.3451L13.3652 63.8973L13.3607 63.8985L13.4193 64.3451ZM19.9111 61.7228L19.7015 61.3375L19.7015 61.3375L19.9111 61.7228ZM22.1576 60.1762L22.4974 60.4689L22.4974 60.4689L22.1576 60.1762ZM23.1835 57.5043L22.6759 57.7236L22.6759 57.7237L23.1835 57.5043ZM23.1833 57.5037L23.6908 57.2844L23.6908 57.2844L23.1833 57.5037ZM21.3366 55.9859L21.4678 55.5175L21.4665 55.5175L21.3366 55.9859ZM15.2288 56.9633L15.1449 56.9961L15.3997 57.8436L15.4837 57.8108L15.2288 56.9633ZM15.1449 56.9961C13.8381 57.507 12.9588 57.8497 12.0099 58.3702L12.4275 59.1416C13.2832 58.6723 14.076 58.3612 15.3997 57.8436L15.1449 56.9961ZM12.0091 58.3706C11.1159 58.862 10.2313 59.3512 9.56328 59.9589L10.2466 60.541C10.7722 60.0629 11.5005 59.6516 12.4284 59.1411L12.0091 58.3706ZM9.56668 59.9558C8.9553 60.5044 8.56986 60.9288 8.45967 61.4776C8.40928 61.7285 8.42217 61.9783 8.45033 62.2364C8.47619 62.4736 8.53039 62.8275 8.57248 63.1815L9.62557 62.9041C9.57506 62.4793 9.533 62.2299 9.50425 61.9664C9.4778 61.7238 9.47771 61.5755 9.50126 61.4582C9.53897 61.2705 9.64909 61.0772 10.2432 60.5441L9.56668 59.9558ZM8.58629 63.2467C8.75673 63.7956 8.90888 64.2917 9.23705 64.63C9.59806 65.0021 10.1204 65.1454 10.8657 65.1696L11.1122 64.2323C10.4943 64.2122 10.25 64.1008 10.096 63.9421C9.9092 63.7495 9.79798 63.4386 9.61176 62.8389L8.58629 63.2467ZM10.8672 65.1696C11.6192 65.1919 12.4937 65.0597 13.4779 64.7916L13.3607 63.8985C12.4556 64.1451 11.7099 64.25 11.1107 64.2322L10.8672 65.1696ZM13.4734 64.7928C14.4642 64.5305 15.5855 64.1451 16.8344 63.6406L16.5652 62.7988C15.3533 63.2883 14.2876 63.6531 13.3652 63.8973L13.4734 64.7928ZM16.8344 63.6406C18.0836 63.136 19.1802 62.6255 20.1207 62.1081L19.7015 61.3375C18.821 61.822 17.7767 62.3094 16.5652 62.7988L16.8344 63.6406ZM20.1207 62.1081C21.0652 61.5884 21.8614 61.0432 22.4974 60.4689L21.8178 59.8834C21.2795 60.3694 20.578 60.8553 19.7015 61.3375L20.1207 62.1081ZM22.4974 60.4689C23.0223 59.995 23.5107 59.5585 23.7468 59.0469C24.0003 58.4979 23.9334 57.9548 23.691 57.285L22.6759 57.7237C22.9004 58.3439 22.8754 58.6357 22.7767 58.8496C22.6607 59.1009 22.4027 59.3553 21.8178 59.8834L22.4974 60.4689ZM23.691 57.285L23.6908 57.2844L22.6757 57.723L22.6759 57.7236L23.691 57.285ZM23.6908 57.2844C23.502 56.7626 23.3448 56.3028 23.0233 55.9984C22.6687 55.6627 22.1678 55.5502 21.4678 55.5175L21.2054 56.4542C21.8251 56.4831 22.0475 56.5767 22.1862 56.708C22.3581 56.8707 22.4644 57.139 22.6757 57.7231L23.6908 57.2844ZM21.4665 55.5175C21.0314 55.4981 20.7408 55.4864 20.3703 55.5347C20.0163 55.5809 19.5975 55.681 18.8941 55.8544L18.9803 56.7555C19.7063 56.5765 20.0471 56.4975 20.3155 56.4624C20.5672 56.4296 20.7616 56.4345 21.2066 56.4543L21.4665 55.5175ZM18.8941 55.8544C17.4688 56.2059 16.9695 56.2826 15.2288 56.9633L15.4837 57.8108C17.1294 57.1672 17.5468 57.109 18.9803 56.7555L18.8941 55.8544ZM9.78053 67.633L10.2474 66.726L10.2431 66.7249L9.78053 67.633ZM8.53449 58.7348L7.73256 58.2756L7.73051 58.278L8.53449 58.7348ZM11.2502 56.3861L10.7314 55.6759L10.7294 55.6772L11.2502 56.3861ZM22.2078 53.3736L22.6741 52.4664L22.6697 52.4653L22.2078 53.3736ZM25.2997 56.6768L26.3556 56.5558L26.3626 56.468L26.3508 56.3839L25.2997 56.6768ZM23.6654 61.9844L22.8597 61.5297L22.8547 61.5357L23.6654 61.9844ZM16.6897 65.5295C13.6518 66.7566 11.5685 67.058 10.2474 66.726L9.31367 68.54C11.3256 69.0456 14.0279 68.5058 17.2281 67.2131L16.6897 65.5295ZM10.2431 66.7249C8.99093 66.4163 8.16545 65.5233 7.91712 63.7501L5.81494 64.3358C6.12199 66.5284 7.2395 68.0288 9.31797 68.541L10.2431 66.7249ZM7.91712 63.7501C7.68354 62.082 8.16615 60.5864 9.33846 59.1916L7.73051 58.278C6.14638 60.1628 5.51669 62.206 5.81494 64.3358L7.91712 63.7501ZM9.3364 59.1941C9.93678 58.4834 10.7402 57.782 11.7711 57.095L10.7294 55.6772C9.52824 56.4777 8.5212 57.3421 7.73257 58.2756L9.3364 59.1941ZM11.769 57.0963C12.8009 56.4112 14.0537 55.7648 15.5408 55.1641L15.0024 53.4804C13.3813 54.1353 11.9531 54.8648 10.7314 55.6759L11.769 57.0963ZM15.5408 55.1641C18.4363 53.9945 20.3565 53.9403 21.7458 54.2818L22.6697 52.4653C20.7524 51.9941 18.3019 52.1477 15.0024 53.4804L15.5408 55.1641ZM21.7415 54.2807C22.4617 54.4613 23.0159 54.73 23.4214 55.13C23.824 55.5272 24.1269 56.1 24.2486 56.9697L26.3508 56.3839C26.1926 55.2538 25.7767 54.3824 25.117 53.7316C24.4601 53.0836 23.6084 52.7006 22.6741 52.4664L21.7415 54.2807ZM24.2439 56.7978C24.079 58.8665 23.9528 60.2233 22.8597 61.5297L24.4712 62.4391C26.0936 60.5002 26.2016 58.4888 26.3556 56.5558L24.2439 56.7978ZM22.8547 61.5357C22.2702 62.2431 21.4783 62.9376 20.4517 63.6133L21.48 65.0399C22.6878 64.2449 23.6955 63.378 24.4762 62.4331L22.8547 61.5357ZM20.4517 63.6133C19.4285 64.2868 18.1792 64.9278 16.6897 65.5295L17.2281 67.2131C18.8469 66.5592 20.2688 65.8371 21.48 65.0399L20.4517 63.6133Z" fill="#291D42" mask="url(#path-3-outside-2_472_486)"/>
<path d="M27.104 0.478638L27.2751 59.8622" stroke="#291D42" stroke-width="3.03059"/>
<path fill-rule="evenodd" clip-rule="evenodd" d="M28.1948 0.925781H28.498C31.8079 2.66038 37.3157 6.15079 41.4602 9.6632C43.5322 11.4191 45.4173 13.3065 46.7889 15.2196C48.1548 17.1248 49.0519 19.112 49.0519 21.0551C49.0519 24.7658 47.4861 27.8416 45.5608 30.1629C43.6393 32.4794 41.3345 34.0769 39.7754 34.8472L37.4646 35.4861L39.1077 33.9195C41.7273 31.2828 44.283 26.8812 43.6454 22.2026C43.0147 17.5738 39.2159 12.4161 28.5663 8.32327L28.1948 8.18049V0.925781Z" fill="#291D42"/>
<path d="M28.498 0.925781L28.6991 0.542112L28.6046 0.492618H28.498V0.925781ZM28.1948 0.925781V0.492618H27.7617V0.925781H28.1948ZM41.4602 9.6632L41.7403 9.33275L41.4602 9.6632ZM46.7889 15.2196L46.4368 15.4719L46.7889 15.2196ZM45.5608 30.1629L45.2274 29.8863L45.5608 30.1629ZM39.7754 34.8472L39.8908 35.2647L39.9304 35.2538L39.9673 35.2356L39.7754 34.8472ZM37.4646 35.4861L37.1657 35.1726L37.5801 35.9036L37.4646 35.4861ZM39.1077 33.9195L39.4067 34.2331L39.415 34.2248L39.1077 33.9195ZM43.6454 22.2026L43.2162 22.261L43.6454 22.2026ZM28.5663 8.32327L28.411 8.7276H28.411L28.5663 8.32327ZM28.1948 8.18049H27.7617V8.47807L28.0394 8.58482L28.1948 8.18049ZM28.498 0.492618H28.1948V1.35894H28.498V0.492618ZM41.7403 9.33275C37.568 5.79682 32.0328 2.28924 28.6991 0.542112L28.2969 1.30945C31.5829 3.03153 37.0634 6.50476 41.1802 9.99366L41.7403 9.33275ZM47.1409 14.9672C45.7411 13.0146 43.8272 11.1014 41.7403 9.33275L41.1802 9.99366C43.2371 11.7369 45.0935 13.5983 46.4368 15.4719L47.1409 14.9672ZM49.485 21.0551C49.485 18.9823 48.531 16.906 47.1409 14.9672L46.4368 15.4719C47.7787 17.3436 48.6187 19.2417 48.6187 21.0551H49.485ZM45.8942 30.4394C47.8642 28.0642 49.485 24.8938 49.485 21.0551H48.6187C48.6187 24.6377 47.1079 27.6191 45.2274 29.8863L45.8942 30.4394ZM39.9673 35.2356C41.5763 34.4405 43.9308 32.8065 45.8942 30.4394L45.2274 29.8863C43.3479 32.1524 41.0927 33.7132 39.5835 34.4589L39.9673 35.2356ZM37.5801 35.9036L39.8908 35.2647L39.66 34.4297L37.3492 35.0686L37.5801 35.9036ZM38.8088 33.606L37.1657 35.1726L37.7635 35.7996L39.4066 34.233L38.8088 33.606ZM43.2162 22.261C43.8284 26.7533 41.3702 31.0277 38.8004 33.6142L39.415 34.2248C42.0845 31.5379 44.7376 27.0091 44.0746 22.1441L43.2162 22.261ZM28.411 8.7276C38.9893 12.793 42.6159 17.8559 43.2162 22.261L44.0746 22.1441C43.4134 17.2917 39.4426 12.0391 28.7217 7.91894L28.411 8.7276ZM28.0394 8.58482L28.411 8.7276L28.7217 7.91894L28.3502 7.77616L28.0394 8.58482ZM27.7617 0.925781V8.18049H28.628V0.925781H27.7617Z" fill="#291D42"/>
</svg>
