<svg width="45" height="34" viewBox="0 0 45 34" fill="none" xmlns="http://www.w3.org/2000/svg">
<mask id="path-1-outside-1_472_483" maskUnits="userSpaceOnUse" x="0.557617" y="0.757935" width="45" height="33" fill="black">
<rect fill="white" x="0.557617" y="0.757935" width="45" height="33"/>
<path fill-rule="evenodd" clip-rule="evenodd" d="M4.93512 28.8145C7.89219 31.3485 12.8994 32.525 19.9568 32.3439C23.4733 32.2537 26.6013 31.8339 29.3407 31.0846C32.0802 30.3353 34.4271 29.2778 36.3816 27.9121C40.2543 25.2452 42.6412 21.4813 43.5424 16.6203C44.4831 11.546 42.8749 8.34578 39.9383 5.83243C36.9977 3.3404 32.6335 1.59079 25.6249 1.77063C22.1084 1.86086 18.9662 2.2916 16.1984 3.06285C13.455 3.83346 11.0959 4.89129 9.12094 6.23631C5.19548 8.92574 2.78611 12.6796 1.89282 17.498C0.960002 22.5296 1.9741 26.3018 4.93512 28.8145ZM10.2269 25.0328C12.6205 27.029 16.497 28.1458 21.8565 28.3833C24.527 28.5017 26.8831 28.3602 28.925 27.959C30.9668 27.5578 32.6926 26.912 34.1022 26.0218C36.8976 24.2864 38.5003 21.676 38.9104 18.1907C39.3384 14.5525 38.3658 11.7281 35.9872 9.7634C33.6086 7.79867 29.758 6.69837 24.4357 6.46249C21.7652 6.34414 19.3989 6.49281 17.3367 6.9085C15.293 7.32502 13.558 7.97034 12.1316 8.84446C9.29737 10.5935 7.17704 13.4186 6.77056 16.8733C6.34609 20.4809 7.83153 23.052 10.2269 25.0328Z"/>
</mask>
<path fill-rule="evenodd" clip-rule="evenodd" d="M4.93512 28.8145C7.89219 31.3485 12.8994 32.525 19.9568 32.3439C23.4733 32.2537 26.6013 31.8339 29.3407 31.0846C32.0802 30.3353 34.4271 29.2778 36.3816 27.9121C40.2543 25.2452 42.6412 21.4813 43.5424 16.6203C44.4831 11.546 42.8749 8.34578 39.9383 5.83243C36.9977 3.3404 32.6335 1.59079 25.6249 1.77063C22.1084 1.86086 18.9662 2.2916 16.1984 3.06285C13.455 3.83346 11.0959 4.89129 9.12094 6.23631C5.19548 8.92574 2.78611 12.6796 1.89282 17.498C0.960002 22.5296 1.9741 26.3018 4.93512 28.8145ZM10.2269 25.0328C12.6205 27.029 16.497 28.1458 21.8565 28.3833C24.527 28.5017 26.8831 28.3602 28.925 27.959C30.9668 27.5578 32.6926 26.912 34.1022 26.0218C36.8976 24.2864 38.5003 21.676 38.9104 18.1907C39.3384 14.5525 38.3658 11.7281 35.9872 9.7634C33.6086 7.79867 29.758 6.69837 24.4357 6.46249C21.7652 6.34414 19.3989 6.49281 17.3367 6.9085C15.293 7.32502 13.558 7.97034 12.1316 8.84446C9.29737 10.5935 7.17704 13.4186 6.77056 16.8733C6.34609 20.4809 7.83153 23.052 10.2269 25.0328Z" fill="#291D42"/>
<path d="M19.9568 32.3439L19.9825 33.3436L19.9568 32.3439ZM4.93512 28.8145L5.58583 28.0552L5.58215 28.052L4.93512 28.8145ZM36.3816 27.9121L35.8144 27.0885L35.8088 27.0924L36.3816 27.9121ZM43.5424 16.6203L42.5592 16.438L43.5424 16.6203ZM39.9383 5.83243L40.5885 5.07269L40.5848 5.06954L39.9383 5.83243ZM25.6249 1.77063L25.5992 0.770958L25.6249 1.77063ZM16.1984 3.06285L15.93 2.09954L15.928 2.10011L16.1984 3.06285ZM9.12094 6.23631L8.55804 5.40979L8.55574 5.41136L9.12094 6.23631ZM1.89282 17.498L2.87607 17.6803L1.89282 17.498ZM21.8565 28.3833L21.8122 29.3823H21.8122L21.8565 28.3833ZM10.2269 25.0328L10.8674 24.2648L10.8642 24.2622L10.2269 25.0328ZM28.925 27.959L28.7322 26.9778L28.925 27.959ZM34.1022 26.0218L33.5748 25.1722L33.5683 25.1763L34.1022 26.0218ZM38.9104 18.1907L37.9172 18.0738V18.0738L38.9104 18.1907ZM35.9872 9.7634L36.624 8.99239V8.99239L35.9872 9.7634ZM24.4357 6.46249L24.3914 7.46151H24.3914L24.4357 6.46249ZM17.3367 6.9085L17.1391 5.92822L17.137 5.92865L17.3367 6.9085ZM12.1316 8.84446L11.6091 7.99182L11.6065 7.99346L12.1316 8.84446ZM6.77056 16.8733L7.76371 16.9902L6.77056 16.8733ZM19.9312 31.3443C12.9408 31.5236 8.25242 30.3403 5.58582 28.0552L4.28442 29.5738C7.53196 32.3568 12.8581 33.5264 19.9825 33.3436L19.9312 31.3443ZM29.0769 30.1201C26.431 30.8438 23.3854 31.2556 19.9312 31.3443L19.9825 33.3436C23.5612 33.2518 26.7716 32.8241 29.6046 32.0492L29.0769 30.1201ZM35.8088 27.0924C33.9643 28.3813 31.7264 29.3954 29.0769 30.1201L29.6046 32.0492C32.434 31.2753 34.89 30.1743 36.9544 28.7318L35.8088 27.0924ZM42.5592 16.438C41.7035 21.0535 39.4568 24.5802 35.8144 27.0885L36.9488 28.7357C41.0518 25.9102 43.5789 21.9091 44.5256 16.8026L42.5592 16.438ZM39.2881 6.59217C40.6645 7.77021 41.6799 9.06579 42.2573 10.6152C42.8338 12.1623 43.0033 14.0425 42.5592 16.438L44.5256 16.8026C45.0223 14.1239 44.858 11.8668 44.1314 9.91685C43.4057 7.96924 42.1487 6.40801 40.5885 5.0727L39.2881 6.59217ZM25.6506 2.7703C32.469 2.59534 36.5769 4.2946 39.2918 6.59532L40.5848 5.06954C37.4185 2.38621 32.798 0.586239 25.5992 0.770958L25.6506 2.7703ZM16.4669 4.02615C19.1402 3.28122 22.1986 2.85888 25.6506 2.7703L25.5992 0.770958C22.0182 0.862847 18.7923 1.30198 15.93 2.09954L16.4669 4.02615ZM9.68384 7.06284C11.554 5.78918 13.8102 4.7724 16.4689 4.02558L15.928 2.10011C13.0999 2.89452 10.6378 3.99339 8.55804 5.40979L9.68384 7.06284ZM2.87607 17.6803C3.72254 13.1145 5.9871 9.59557 9.68614 7.06127L8.55574 5.41136C4.40387 8.25591 1.84968 12.2448 0.909574 17.3157L2.87607 17.6803ZM5.58215 28.052C2.98109 25.8448 1.98481 22.4877 2.87607 17.6803L0.909574 17.3157C-0.0648109 22.5715 0.967111 26.7588 4.28809 29.577L5.58215 28.052ZM21.9008 27.3843C16.6182 27.1502 13.0094 26.0511 10.8674 24.2649L9.58646 25.8008C12.2317 28.0068 16.3759 29.1414 21.8122 29.3823L21.9008 27.3843ZM28.7322 26.9778C26.7868 27.36 24.513 27.5001 21.9008 27.3843L21.8122 29.3823C24.5409 29.5033 26.9795 29.3604 29.1178 28.9402L28.7322 26.9778ZM33.5683 25.1763C32.2853 25.9865 30.6818 26.5946 28.7322 26.9778L29.1178 28.9402C31.2518 28.5209 33.0998 27.8376 34.6362 26.8673L33.5683 25.1763ZM37.9172 18.0738C37.54 21.2799 36.0922 23.6093 33.5748 25.1722L34.6297 26.8714C37.7029 24.9634 39.4606 22.0721 39.9035 18.3075L37.9172 18.0738ZM35.3504 10.5344C37.4132 12.2382 38.3146 14.6968 37.9172 18.0738L39.9035 18.3075C40.3623 14.4082 39.3185 11.218 36.624 8.99239L35.3504 10.5344ZM24.3914 7.46151C29.6382 7.69404 33.2228 8.77703 35.3504 10.5344L36.624 8.99239C33.9943 6.82031 29.8779 5.7027 24.48 5.46347L24.3914 7.46151ZM17.5343 7.88879C19.4989 7.49277 21.7813 7.34584 24.3914 7.46151L24.48 5.46347C21.7491 5.34245 19.2989 5.49286 17.1391 5.92822L17.5343 7.88879ZM12.6541 9.69709C13.9601 8.89679 15.5799 8.28712 17.5364 7.88836L17.137 5.92865C15.0062 6.36292 13.156 7.04388 11.6091 7.99183L12.6541 9.69709ZM7.76371 16.9902C8.1285 13.8897 10.0354 11.3132 12.6568 9.69546L11.6065 7.99346C8.55932 9.8739 6.22558 12.9474 5.77741 16.7565L7.76371 16.9902ZM10.8642 24.2622C8.6689 22.4468 7.38739 20.1886 7.76371 16.9902L5.77741 16.7565C5.30479 20.7733 6.99415 23.6572 9.58965 25.8035L10.8642 24.2622Z" fill="#291D42" mask="url(#path-1-outside-1_472_483)"/>
</svg>
