<svg width="34" height="31" viewBox="0 0 34 31" fill="none" xmlns="http://www.w3.org/2000/svg">
<path d="M21.662 23.3765C17.7397 25.8002 14.3912 26.9068 11.6166 26.696C8.84897 26.4966 6.6392 25.0602 4.98727 22.3869C3.40534 19.8269 3.14423 17.2647 4.20394 14.7002C4.74057 13.4138 5.6195 12.135 6.84073 10.8638C8.07552 9.5842 9.67011 8.34058 11.6245 7.13289C15.5197 4.72591 18.8408 3.62066 21.5878 3.81714C24.3419 4.02496 26.5519 5.47684 28.2178 8.17277C29.8137 10.7554 30.0919 13.315 29.0524 15.8513C28.5363 17.1407 27.6642 18.4153 26.4359 19.6752C25.2077 20.935 23.6164 22.1688 21.662 23.3765ZM13.9232 11.4299C12.376 12.386 11.0645 13.3138 9.98869 14.2133C8.92649 15.1045 8.11401 15.9901 7.55124 16.87C6.40514 18.627 6.84073 18.6772 7.18723 21.1214C8.90299 22.3869 9.53254 22.626 11.6166 22.3869C12.6483 22.2659 13.7968 21.9241 15.062 21.3614C16.3478 20.8017 17.7643 20.0438 19.3115 19.0877C20.8587 18.1316 22.1634 17.208 23.2256 16.3168C24.2878 15.4256 25.097 14.5499 25.6532 13.6897C26.745 11.9663 26.4359 11.4299 25.9771 9.46346C24.2899 8.17277 23.6176 7.96724 21.5878 8.17277C20.5697 8.2854 19.4245 8.61738 18.1523 9.16872C16.8801 9.72007 15.4704 10.4738 13.9232 11.4299Z" fill="#F4F4F4"/>
</svg>
