<svg width="33" height="55" viewBox="0 0 33 55" fill="none" xmlns="http://www.w3.org/2000/svg">
<path d="M19.2374 14.9271C25.2533 12.8998 28.103 6.0631 29.0394 1.54048C29.2086 0.723554 30.0044 0.167877 30.8173 0.355466C31.6168 0.539979 32.0893 1.35009 31.8294 2.12842C29.4817 9.15995 19.8758 37.1289 14.5533 52.5961C14.2786 53.3945 13.4287 53.8337 12.6168 53.6017L12.461 53.5572C11.5794 53.3053 11.0935 52.3613 11.4009 51.4975L22.4877 20.3398C23.0123 18.8656 21.1721 17.3934 19.7581 18.0636C16.993 19.3741 13.511 20.5474 10.141 20.5474C4.51304 20.5474 1.54764 16.3825 0.718332 14.195C0.690106 14.1206 0.670045 14.0473 0.656092 13.9689C0.088272 10.7786 1.20251 4.62128 10.141 4.62128C17.3527 4.62128 18.2004 9.21585 17.4293 12.9118C17.1823 14.096 18.0911 15.3134 19.2374 14.9271Z" fill="#291D42" stroke="#291D42" stroke-width="0.461627" stroke-linejoin="round"/>
</svg>
