<svg width="24" height="66" viewBox="0 0 24 66" fill="none" xmlns="http://www.w3.org/2000/svg">
<path d="M2.15096 28.1342C14.9693 15.324 9.94897 9.15346 4.50518 2.08784C4.35661 1.895 4.41252 1.61488 4.62405 1.4944L5.18225 1.17648C5.35897 1.07583 5.58304 1.12332 5.70375 1.287L20.3325 21.1244C20.4356 21.2641 20.4374 21.4538 20.3367 21.5952C19.5855 22.6498 16.5 26.9904 14.6636 29.7183C12.1672 33.4266 10.5355 36.8469 21.3094 49.3323C21.6086 49.6791 21.1067 50.3703 20.6709 50.2295C12.9741 47.7427 2.49911 52.3737 12.6983 64.8577C12.9577 65.1752 12.6483 65.638 12.2684 65.4839C-3.22942 59.1954 -1.684 39.5879 13.4595 43.8881C13.8506 43.9991 14.1851 43.529 13.9287 43.2135L2.11602 28.6797C1.98572 28.5194 2.00484 28.2802 2.15096 28.1342Z" fill="#291D42" stroke="#291D42" stroke-width="0.802469" stroke-linejoin="round"/>
</svg>
