<svg width="38" height="55" viewBox="0 0 38 55" fill="none" xmlns="http://www.w3.org/2000/svg">
<mask id="path-1-outside-1_472_487" maskUnits="userSpaceOnUse" x="-0.887853" y="39.9088" width="19.8325" height="16.2779" fill="black">
<rect fill="white" x="-0.887853" y="39.9088" width="19.8325" height="16.2779"/>
<path d="M4.24479 53.2329C5.46779 53.5383 7.22381 53.2316 9.51283 52.3129C10.6534 51.8551 11.6336 51.358 12.4535 50.8218C13.2733 50.2856 13.9337 49.7162 14.4346 49.1138C15.4311 47.9305 15.517 46.7024 15.634 45.2433C15.4285 43.785 14.5791 43.1369 13.3649 42.8345C12.1515 42.5382 10.5478 42.6139 8.27458 43.5263C7.13402 43.9841 6.15029 44.4858 5.32337 45.0313C4.50437 45.5737 3.84003 46.1446 3.33035 46.7441C2.3189 47.9399 1.91075 49.2302 2.1059 50.6149C2.30969 52.061 3.02265 52.9336 4.24479 53.2329Z"/>
</mask>
<path d="M4.24479 53.2329C5.46779 53.5383 7.22381 53.2316 9.51283 52.3129C10.6534 51.8551 11.6336 51.358 12.4535 50.8218C13.2733 50.2856 13.9337 49.7162 14.4346 49.1138C15.4311 47.9305 15.517 46.7024 15.634 45.2433C15.4285 43.785 14.5791 43.1369 13.3649 42.8345C12.1515 42.5382 10.5478 42.6139 8.27458 43.5263C7.13402 43.9841 6.15029 44.4858 5.32337 45.0313C4.50437 45.5737 3.84003 46.1446 3.33035 46.7441C2.3189 47.9399 1.91075 49.2302 2.1059 50.6149C2.30969 52.061 3.02265 52.9336 4.24479 53.2329Z" fill="#291D42"/>
<path d="M8.3367 45.7612L8.51975 46.2265L8.51976 46.2265L8.3367 45.7612ZM8.27506 45.7852L8.45811 46.2505L8.45811 46.2505L8.27506 45.7852ZM6.03413 46.7594L5.79294 46.3211L5.79237 46.3214L6.03413 46.7594ZM4.33609 47.849L4.6705 48.2217L4.67302 48.2194L4.33609 47.849ZM3.74465 49.8856L3.24748 49.9433L3.25294 49.9889L3.26666 50.0328L3.74465 49.8856ZM5.13162 51.0948L5.11704 51.5938L5.11838 51.5938L5.13162 51.0948ZM6.9152 50.8353L6.78606 50.3525L6.78264 50.3534L6.9152 50.8353ZM11.6794 48.923L11.4376 48.485L11.4376 48.485L11.6794 48.923ZM13.328 47.7952L12.9925 47.4235L13.328 47.7952ZM14.0809 45.8468L14.5515 45.6777L14.5515 45.6776L14.0809 45.8468ZM14.0808 45.8463L13.6102 46.0154L13.6102 46.0155L14.0808 45.8463ZM12.7255 44.7395L12.7472 44.2407L12.7461 44.2407L12.7255 44.7395ZM10.9647 44.9722L11.0856 45.4571L10.9647 44.9722ZM8.15365 45.2959L8.09202 45.3199L8.45811 46.2505L8.51975 46.2265L8.15365 45.2959ZM8.09202 45.3199C7.13269 45.6926 6.48825 45.9422 5.79294 46.3211L6.27532 47.1977C6.9043 46.8549 7.48696 46.6278 8.45811 46.2505L8.09202 45.3199ZM5.79237 46.3214C5.13695 46.6798 4.48901 47.0358 3.99917 47.4786L4.67302 48.2194C5.05908 47.8704 5.59489 47.5697 6.2759 47.1974L5.79237 46.3214ZM4.0017 47.4763C3.56481 47.8659 3.25734 48.1889 3.1668 48.637C3.12402 48.8487 3.1361 49.0561 3.15759 49.2519C3.17568 49.4168 3.21915 49.7065 3.24748 49.9433L4.24182 49.828C4.20218 49.4968 4.17501 49.3466 4.15303 49.1463C4.13444 48.977 4.137 48.8941 4.14849 48.8373C4.16648 48.7482 4.22269 48.6209 4.67049 48.2217L4.0017 47.4763ZM3.26666 50.0328C3.38591 50.4144 3.51244 50.8424 3.80292 51.1399C4.13002 51.475 4.57621 51.5764 5.11704 51.5938L5.1462 50.5957C4.68664 50.5809 4.5702 50.4966 4.51935 50.4445C4.43189 50.3549 4.36513 50.1945 4.22263 49.7385L3.26666 50.0328ZM5.11838 51.5938C5.68006 51.6104 6.32637 51.5124 7.04777 51.3172L6.78264 50.3534C6.11753 50.5334 5.57479 50.6084 5.14486 50.5957L5.11838 51.5938ZM7.04434 51.3181C7.7719 51.1267 8.59472 50.8456 9.51088 50.4779L9.13445 49.5514C8.24474 49.9085 7.46258 50.1745 6.78607 50.3525L7.04434 51.3181ZM9.51088 50.4779C10.4274 50.11 11.2316 49.738 11.9212 49.361L11.4376 48.485C10.7907 48.8387 10.0238 49.1944 9.13445 49.5514L9.51088 50.4779ZM11.9212 49.361C12.6132 48.9827 13.1968 48.5856 13.6636 48.1668L12.9925 47.4235C12.5975 47.7779 12.082 48.1328 11.4376 48.485L11.9212 49.361ZM13.6636 48.1668C14.0431 47.8263 14.4111 47.5019 14.5928 47.1108C14.8032 46.658 14.7416 46.1997 14.5515 45.6777L13.6103 46.0159C13.7628 46.4346 13.732 46.5851 13.6839 46.6887C13.6072 46.8539 13.4275 47.0333 12.9925 47.4235L13.6636 48.1668ZM14.5515 45.6776L14.5513 45.6772L13.6102 46.0155L13.6104 46.016L14.5515 45.6776ZM14.5513 45.6772C14.4805 45.4827 14.4113 45.2913 14.3342 45.1281C14.255 44.9602 14.1532 44.7895 13.9992 44.6446C13.678 44.3425 13.2506 44.2641 12.7472 44.2407L12.7038 45.2382C13.1689 45.2598 13.2723 45.3315 13.3132 45.37C13.3402 45.3954 13.3773 45.4426 13.4284 45.5509C13.4816 45.6638 13.5342 45.8068 13.6102 46.0154L14.5513 45.6772ZM12.7461 44.2407C12.4261 44.2265 12.2073 44.2177 11.9302 44.2536C11.6681 44.2876 11.3593 44.361 10.8438 44.4873L11.0856 45.4571C11.6191 45.3264 11.8677 45.2691 12.0624 45.2439C12.2419 45.2206 12.379 45.2239 12.7049 45.2383L12.7461 44.2407ZM10.8438 44.4873C9.79741 44.7436 9.43083 44.7997 8.15364 45.2959L8.51976 46.2265C9.72775 45.7572 10.0339 45.7147 11.0856 45.4571L10.8438 44.4873ZM4.24479 53.2329L4.48516 52.2643L4.48071 52.2632L4.24479 53.2329ZM3.33035 46.7441L2.56567 46.0969L2.56404 46.0989L3.33035 46.7441ZM5.32337 45.0313L4.769 44.198L4.76756 44.1989L5.32337 45.0313ZM8.27458 43.5263L7.89814 42.5998L8.27458 43.5263ZM13.3649 42.8345L13.6047 41.8657L13.6002 41.8646L13.3649 42.8345ZM15.634 45.2433L16.6322 45.326L16.641 45.2164L16.6256 45.1074L15.634 45.2433ZM14.4346 49.1138L13.6669 48.4702L13.6629 48.475L14.4346 49.1138ZM12.4535 50.8218L11.9024 49.9863L11.9024 49.9863L12.4535 50.8218ZM9.1364 51.3863C6.88485 52.29 5.38339 52.4886 4.48516 52.2643L4.00442 54.2016C5.55219 54.5881 7.56277 54.1732 9.88927 53.2394L9.1364 51.3863ZM4.48071 52.2632C4.05589 52.1591 3.77152 51.9725 3.56903 51.7247C3.35817 51.4666 3.18141 51.0741 3.09755 50.479L1.11426 50.7509C1.23419 51.6018 1.5158 52.3687 2.01791 52.9832C2.52837 53.608 3.21156 54.0074 4.00887 54.2027L4.48071 52.2632ZM3.09755 50.479C2.947 49.4108 3.24359 48.3979 4.09665 47.3894L2.56404 46.0989C1.39421 47.4819 0.874506 49.0496 1.11426 50.7509L3.09755 50.479ZM4.09502 47.3913C4.53138 46.878 5.11981 46.3666 5.87918 45.8637L4.76756 44.1989C3.88893 44.7808 3.14868 45.4112 2.56567 46.0969L4.09502 47.3913ZM5.87773 45.8647C6.63722 45.3636 7.55862 44.8913 8.65101 44.4529L7.89814 42.5998C6.70943 43.0769 5.66336 43.6079 4.76901 44.198L5.87773 45.8647ZM8.65101 44.4529C10.7904 43.5941 12.1751 43.5713 13.1296 43.8044L13.6002 41.8646C12.1279 41.505 10.3051 41.6337 7.89814 42.5998L8.65101 44.4529ZM13.1251 43.8033C13.6293 43.9289 13.9587 44.1027 14.1768 44.3165C14.382 44.5177 14.5647 44.8281 14.6423 45.3792L16.6256 45.1074C16.4978 44.2002 16.153 43.4575 15.5785 42.8944C15.0171 42.344 14.3147 42.0426 13.6047 41.8657L13.1251 43.8033ZM14.6358 45.1606C14.5159 46.6551 14.4308 47.563 13.6669 48.4702L15.2023 49.7574C16.4313 48.2979 16.518 46.7497 16.6322 45.326L14.6358 45.1606ZM13.6629 48.475C13.2388 48.985 12.659 49.4914 11.9024 49.9863L13.0045 51.6573C13.8876 51.0797 14.6286 50.4474 15.2063 49.7526L13.6629 48.475ZM11.9024 49.9863C11.1494 50.4788 10.2305 50.9472 9.1364 51.3863L9.88927 53.2394C11.0763 52.763 12.1178 52.2373 13.0045 51.6573L11.9024 49.9863Z" fill="#291D42" mask="url(#path-1-outside-1_472_487)"/>
<path d="M14.2476 5.56116V46.2871" stroke="#291D42" stroke-width="3.03059"/>
<path fill-rule="evenodd" clip-rule="evenodd" d="M24.8019 7.77861C21.0914 6.7342 16.7653 6.30252 14.1166 6.15577L14.1081 6.41063C14.0345 6.40613 13.9619 6.40191 13.8904 6.39795L14.0937 6.84206L13.9614 10.8018L16.0757 10.6853C24.1606 10.2018 28.1312 12.4037 29.899 15.1915C30.5503 16.2185 30.9166 17.3457 31.0748 18.4827C31.3248 20.5031 30.9522 22.5276 30.3684 24.0908C30.3823 24.0739 30.3963 24.0567 30.4104 24.0393C30.4102 24.0397 30.4101 24.0401 30.4099 24.0404L29.5724 25.5651L31.114 24.4411C31.8952 23.4909 32.9152 21.7919 33.4761 19.7431C34.0382 17.6902 34.1461 15.2577 33.0557 12.8752C32.4847 11.6276 31.321 10.6137 29.8783 9.78946C28.4298 8.96182 26.6569 8.30073 24.8019 7.77861ZM31.8578 21.6799C31.8555 21.6957 31.8532 21.7114 31.8508 21.7271C32.1702 21.07 32.4636 20.3278 32.6824 19.5287C33.0224 18.2868 33.1794 16.9193 32.9823 15.5245C33.2662 17.808 32.6536 19.9969 31.8578 21.6799Z" fill="#291D42"/>
<path d="M14.1166 6.15577L14.1394 5.72403L13.6976 5.69956L13.6829 6.14007L14.1166 6.15577ZM24.8019 7.77861L24.6851 8.19471L24.8019 7.77861ZM14.1081 6.41063L14.0829 6.84222L14.527 6.86934L14.5418 6.42633L14.1081 6.41063ZM13.8904 6.39795L13.9132 5.96621L13.1983 5.9266L13.4957 6.57639L13.8904 6.39795ZM14.0937 6.84206L14.5274 6.85776L14.5307 6.75619L14.4884 6.66362L14.0937 6.84206ZM13.9614 10.8018L13.5277 10.7861L13.5119 11.2597L13.9867 11.2335L13.9614 10.8018ZM16.0757 10.6853L16.1009 11.117L16.103 11.1169L16.0757 10.6853ZM29.899 15.1915L30.2657 14.9613L30.2657 14.9613L29.899 15.1915ZM31.0748 18.4827L31.5055 18.4311L31.5046 18.4246L31.0748 18.4827ZM30.3684 24.0908L29.9617 23.9389L30.7044 24.3654L30.3684 24.0908ZM30.4104 24.0393L30.8172 24.191L30.072 23.7676L30.4104 24.0393ZM30.4099 24.0404L30.7907 24.249L30.8058 24.2215L30.8167 24.1921L30.4099 24.0404ZM29.5724 25.5651L29.1916 25.3565L29.8293 25.9143L29.5724 25.5651ZM31.114 24.4411L31.3709 24.7903L31.4152 24.758L31.45 24.7157L31.114 24.4411ZM33.4761 19.7431L33.0575 19.6281L33.4761 19.7431ZM29.8783 9.78946L29.6634 10.1644L29.8783 9.78946ZM31.8578 21.6799L31.4652 21.4947L31.4378 21.5525L31.4285 21.6159L31.8578 21.6799ZM31.8508 21.7271L31.4217 21.6615L32.2414 21.9165L31.8508 21.7271ZM32.6824 19.5287L33.101 19.6437L32.6824 19.5287ZM32.9823 15.5245L33.4119 15.4654L32.5516 15.5763L32.9823 15.5245ZM14.0938 6.58751C16.7298 6.73355 21.0194 7.16291 24.6851 8.19471L24.9187 7.36251C21.1634 6.3055 16.8008 5.87148 14.1394 5.72403L14.0938 6.58751ZM14.5418 6.42633L14.5503 6.17147L13.6829 6.14007L13.6744 6.39492L14.5418 6.42633ZM14.1333 5.97903C14.0589 5.97449 13.9855 5.97022 13.9132 5.96621L13.8676 6.82968C13.9383 6.8336 14.0101 6.83778 14.0829 6.84222L14.1333 5.97903ZM13.4957 6.57639L13.699 7.0205L14.4884 6.66362L14.2851 6.21951L13.4957 6.57639ZM14.3951 10.8175L14.5274 6.85776L13.66 6.82636L13.5277 10.7861L14.3951 10.8175ZM16.0504 10.2535L13.9361 10.37L13.9867 11.2335L16.1009 11.117L16.0504 10.2535ZM30.2657 14.9613C28.3764 11.9822 24.2088 9.7657 16.0484 10.2537L16.103 11.1169C24.1124 10.638 27.8859 12.8253 29.5324 15.4217L30.2657 14.9613ZM31.5046 18.4246C31.3393 17.2362 30.9549 16.0482 30.2657 14.9613L29.5324 15.4217C30.1456 16.3887 30.494 17.4552 30.645 18.5408L31.5046 18.4246ZM30.6441 18.5344C30.884 20.4728 30.5263 22.427 29.9617 23.9389L30.7751 24.2427C31.3781 22.6281 31.7656 20.5333 31.5055 18.4311L30.6441 18.5344ZM30.7044 24.3654C30.7191 24.3475 30.7339 24.3294 30.7487 24.311L30.072 23.7676C30.0587 23.7841 30.0455 23.8002 30.0324 23.8161L30.7044 24.3654ZM30.8167 24.1921C30.8167 24.1921 30.8167 24.1921 30.8168 24.1919C30.8169 24.1917 30.817 24.1914 30.8172 24.191L30.0035 23.8876C30.0035 23.8876 30.0035 23.8877 30.0034 23.8879C30.0034 23.888 30.0033 23.8884 30.0031 23.8888L30.8167 24.1921ZM29.9531 25.7736L30.7907 24.249L30.0292 23.8319L29.1916 25.3565L29.9531 25.7736ZM30.8571 24.0918L29.3155 25.2158L29.8293 25.9143L31.3709 24.7903L30.8571 24.0918ZM33.0575 19.6281C32.5139 21.6137 31.524 23.2591 30.778 24.1664L31.45 24.7157C32.2664 23.7227 33.3166 21.9701 33.8948 19.8581L33.0575 19.6281ZM32.661 13.0537C33.6979 15.3192 33.6011 17.6427 33.0575 19.6281L33.8948 19.8581C34.4753 17.7377 34.5944 15.1963 33.4504 12.6968L32.661 13.0537ZM29.6634 10.1644C31.0701 10.9682 32.1442 11.9245 32.661 13.0537L33.4504 12.6968C32.8251 11.3307 31.5719 10.2593 30.0933 9.4145L29.6634 10.1644ZM24.6851 8.19471C26.5212 8.71151 28.2571 9.36093 29.6634 10.1644L30.0933 9.4145C28.6025 8.56271 26.7926 7.88995 24.9187 7.36251L24.6851 8.19471ZM31.4285 21.6159C31.4263 21.6311 31.424 21.6463 31.4217 21.6615L32.2799 21.7927C32.2823 21.7765 32.2848 21.7602 32.2872 21.744L31.4285 21.6159ZM32.2414 21.9165C32.571 21.2385 32.8744 20.4714 33.101 19.6437L32.2638 19.4137C32.0528 20.1842 31.7694 20.9015 31.4602 21.5376L32.2414 21.9165ZM33.101 19.6437C33.453 18.358 33.6189 16.9303 33.4119 15.4654L32.5526 15.5835C32.7398 16.9083 32.5917 18.2156 32.2638 19.4137L33.101 19.6437ZM32.2505 21.8652C33.0683 20.1354 33.71 17.8626 33.4129 15.4726L32.5516 15.5763C32.8223 17.7535 32.2388 19.8584 31.4652 21.4947L32.2505 21.8652ZM14.1388 5.724L14.1207 5.72302L14.0762 6.58656L14.0944 6.58754L14.1388 5.724Z" fill="#291D42"/>
<path fill-rule="evenodd" clip-rule="evenodd" d="M14.7124 15.5541L14.2401 15.504L14.9085 19.1632L16.2165 19.1634C21.7802 19.0408 24.6732 20.8645 26.0804 23.0724C27.5028 25.3041 27.4904 28.0524 27.017 29.9226L26.6986 31.0516L27.5307 30.2538C28.0087 29.5442 28.6027 28.2636 28.856 26.6987C29.1097 25.1306 29.0242 23.2553 28.1125 21.3814C27.6351 20.4001 26.763 19.581 25.7102 18.8997C24.6532 18.2155 23.3826 17.65 22.0644 17.1892C19.4276 16.2675 16.5552 15.7496 14.7124 15.5541Z" fill="#291D42"/>
<path d="M14.2401 15.504L14.2847 15.0741L13.7095 15.0131L13.8131 15.5801L14.2401 15.504ZM14.7124 15.5541L14.757 15.1242L14.757 15.1242L14.7124 15.5541ZM14.9085 19.1632L14.4815 19.2393L14.5465 19.5955L14.9097 19.5955L14.9085 19.1632ZM16.2165 19.1634L16.2178 19.5959L16.2275 19.5956L16.2165 19.1634ZM26.0804 23.0724L25.7142 23.3033L26.0804 23.0724ZM27.017 29.9226L27.435 30.0407L27.4378 30.0295L27.017 29.9226ZM26.6986 31.0516L26.2808 30.9335L25.848 32.468L27.0001 31.3635L26.6986 31.0516ZM27.5307 30.2538L27.8321 30.5657L27.8655 30.5338L27.8913 30.4955L27.5307 30.2538ZM28.856 26.6987L28.4275 26.6286L28.4275 26.6286L28.856 26.6987ZM25.7102 18.8997L25.4746 19.262L25.7102 18.8997ZM22.0644 17.1892L21.9218 17.5971L22.0644 17.1892ZM14.1954 15.9339L14.6677 15.984L14.757 15.1242L14.2847 15.0741L14.1954 15.9339ZM15.3355 19.0871L14.667 15.4279L13.8131 15.5801L14.4815 19.2393L15.3355 19.0871ZM16.2153 18.7311L14.9072 18.7309L14.9097 19.5955L16.2178 19.5958L16.2153 18.7311ZM26.4466 22.8415C24.9348 20.4695 21.8734 18.6063 16.2056 18.7312L16.2275 19.5956C21.6869 19.4753 24.4117 21.2596 25.7142 23.3033L26.4466 22.8415ZM27.4378 30.0295C27.9298 28.0861 27.9531 25.2052 26.4466 22.8415L25.7142 23.3033C27.0525 25.403 27.051 28.0187 26.5961 29.8156L27.4378 30.0295ZM27.1165 31.1697L27.4348 30.0407L26.5991 29.8045L26.2808 30.9335L27.1165 31.1697ZM27.2292 29.9419L26.3972 30.7396L27.0001 31.3635L27.8321 30.5657L27.2292 29.9419ZM28.4275 26.6286C28.1843 28.1314 27.6137 29.3536 27.1701 30.0122L27.8913 30.4955C28.4037 29.7348 29.0212 28.3958 29.2845 26.7688L28.4275 26.6286ZM27.7221 21.569C28.5868 23.3465 28.6703 25.1283 28.4275 26.6286L29.2845 26.7688C29.5492 25.1329 29.4616 23.1642 28.503 21.1939L27.7221 21.569ZM25.4746 19.262C26.4922 19.9206 27.2927 20.6863 27.7221 21.569L28.503 21.1939C27.9776 20.1139 27.0338 19.2415 25.9459 18.5373L25.4746 19.262ZM21.9218 17.5971C23.2204 18.051 24.4563 18.6029 25.4746 19.262L25.9459 18.5373C24.85 17.8281 23.5448 17.2489 22.207 16.7813L21.9218 17.5971ZM14.6677 15.984C16.4855 16.1768 19.3237 16.6889 21.9218 17.5971L22.207 16.7813C19.5315 15.8461 16.6249 15.3224 14.757 15.1242L14.6677 15.984Z" fill="#291D42"/>
</svg>
