<svg width="45" height="65" viewBox="0 0 45 65" fill="none" xmlns="http://www.w3.org/2000/svg">
<path d="M20.8966 6.62842V51.3998" stroke="#F4F4F4" stroke-width="2.62548"/>
<path d="M3.8487 53.6064L3.84862 53.6066L9.20479 62.1975L9.19955 62.2664C9.19958 62.2664 9.1996 62.2664 9.19962 62.2664C11.2019 62.4184 13.6078 61.6198 16.4131 59.8863C17.8119 59.0219 18.9528 58.1377 19.8346 57.2331C20.7161 56.3289 21.3446 55.4116 21.7172 54.4808C22.4687 52.6471 22.2657 50.7967 21.1161 48.9364C19.9171 46.996 18.3208 45.9444 16.329 45.7941L16.3288 45.7941C14.3462 45.6523 11.96 46.45 9.1741 48.1715C7.7752 49.0359 6.63186 49.9273 5.74531 50.846L5.7452 50.8461C4.86888 51.7583 4.23588 52.6783 3.8487 53.6064Z" fill="#F4F4F4" stroke="#F4F4F4" stroke-width="0.138183"/>
<path fill-rule="evenodd" clip-rule="evenodd" d="M20.6251 6.88979L19.911 6.8374L22.0705 11.813L22.3678 11.8003C30.89 11.4373 35.0306 13.844 36.8411 16.8309C38.671 19.8499 38.2284 23.6294 37.2166 26.2176L36.556 27.7811L37.9507 26.6551C38.7907 25.6627 39.896 23.881 40.5242 21.7203C41.1537 19.5552 41.312 16.9795 40.2075 14.4346C39.6291 13.1019 38.4224 12.006 36.9184 11.1059C35.4083 10.2021 33.5535 9.46883 31.6098 8.88127C27.7218 7.70598 23.4115 7.09422 20.6251 6.88979Z" fill="#F4F4F4"/>
<path d="M19.911 6.8374L19.9427 6.4054L19.2286 6.35301L19.5137 7.00986L19.911 6.8374ZM20.6251 6.88979L20.5934 7.3218L20.6251 6.88979ZM22.0705 11.813L21.6731 11.9855L21.7916 12.2584L22.0889 12.2458L22.0705 11.813ZM22.3678 11.8003L22.3494 11.3676L22.3494 11.3676L22.3678 11.8003ZM36.8411 16.8309L37.2115 16.6063L37.2115 16.6063L36.8411 16.8309ZM37.2166 26.2176L37.6158 26.3862L37.6201 26.3753L37.2166 26.2176ZM36.556 27.7811L36.157 27.6126L36.8282 28.1182L36.556 27.7811ZM37.9507 26.6551L38.2228 26.9921L38.2548 26.9663L38.2813 26.935L37.9507 26.6551ZM40.5242 21.7203L40.9401 21.8412L40.9401 21.8412L40.5242 21.7203ZM36.9184 11.1059L37.1408 10.7342L37.1408 10.7342L36.9184 11.1059ZM31.6098 8.88127L31.7352 8.46664L31.7352 8.46664L31.6098 8.88127ZM19.8793 7.2694L20.5934 7.3218L20.6568 6.45779L19.9427 6.4054L19.8793 7.2694ZM22.4678 11.6405L20.3084 6.66495L19.5137 7.00986L21.6731 11.9855L22.4678 11.6405ZM22.3494 11.3676L22.052 11.3802L22.0889 12.2458L22.3862 12.2331L22.3494 11.3676ZM37.2115 16.6063C35.2841 13.4265 30.9478 11.0013 22.3494 11.3676L22.3862 12.2331C30.8322 11.8734 34.7772 14.2615 36.4706 17.0554L37.2115 16.6063ZM37.6201 26.3753C38.6576 23.7212 39.1389 19.7863 37.2115 16.6063L36.4706 17.0554C38.203 19.9136 37.7992 23.5376 36.8132 26.0599L37.6201 26.3753ZM36.9551 27.9497L37.6156 26.3861L36.8176 26.049L36.157 27.6126L36.9551 27.9497ZM37.6786 26.3181L36.2839 27.4441L36.8282 28.1182L38.2228 26.9921L37.6786 26.3181ZM40.1083 21.5993C39.4984 23.697 38.4241 25.4254 37.6201 26.3753L38.2813 26.935C39.1573 25.9 40.2936 24.065 40.9401 21.8412L40.1083 21.5993ZM39.8102 14.6071C40.8637 17.0345 40.7182 19.5016 40.1083 21.5993L40.9401 21.8412C41.5892 19.6088 41.7604 16.9245 40.6049 14.2622L39.8102 14.6071ZM36.6959 11.4776C38.1644 12.3565 39.2834 13.3933 39.8102 14.6071L40.6049 14.2622C39.9748 12.8104 38.6803 11.6556 37.1408 10.7342L36.6959 11.4776ZM31.4845 9.29591C33.4094 9.87779 35.2274 10.5987 36.6959 11.4776L37.1408 10.7342C35.5891 9.80551 33.6977 9.05988 31.7352 8.46664L31.4845 9.29591ZM20.5934 7.3218C23.3573 7.52456 27.6347 8.13215 31.4845 9.29591L31.7352 8.46664C27.809 7.27981 23.4658 6.66388 20.6568 6.45779L20.5934 7.3218Z" fill="#F4F4F4"/>
<path fill-rule="evenodd" clip-rule="evenodd" d="M20.4533 17.4739L19.911 17.416L21.9576 21.6496L22.1805 21.6447C28.5689 21.503 31.8908 23.6104 33.5066 26.1617C35.1398 28.7406 35.1255 31.9164 34.582 34.0774L34.2164 35.382L35.1718 34.4602C35.7207 33.6402 36.4028 32.1604 36.6936 30.3521C36.9849 28.5401 36.8867 26.3731 35.8399 24.2077C35.2917 23.0737 34.2903 22.1272 33.0815 21.3399C31.8677 20.5493 30.4088 19.8958 28.8952 19.3633C25.8675 18.2982 22.5693 17.6998 20.4533 17.4739Z" fill="#F4F4F4"/>
<path d="M19.911 17.416L19.957 16.9853L19.1817 16.9025L19.521 17.6045L19.911 17.416ZM20.4533 17.4739L20.4073 17.9046L20.4073 17.9046L20.4533 17.4739ZM21.9576 21.6496L21.5676 21.8382L21.6888 22.0889L21.9672 22.0827L21.9576 21.6496ZM22.1805 21.6447L22.1901 22.0777L22.1901 22.0777L22.1805 21.6447ZM33.5066 26.1617L33.1406 26.3935L33.1406 26.3935L33.5066 26.1617ZM34.582 34.0774L34.9992 34.1943L35.002 34.1831L34.582 34.0774ZM34.2164 35.382L33.7993 35.2652L33.3687 36.8018L34.5172 35.6937L34.2164 35.382ZM35.1718 34.4602L35.4726 34.7719L35.506 34.7397L35.5318 34.7012L35.1718 34.4602ZM36.6936 30.3521L37.1212 30.4208L37.1212 30.4208L36.6936 30.3521ZM33.0815 21.3399L33.3179 20.9769L33.3179 20.9769L33.0815 21.3399ZM28.8952 19.3633L29.039 18.9547L29.039 18.9547L28.8952 19.3633ZM19.865 17.8467L20.4073 17.9046L20.4993 17.0432L19.957 16.9853L19.865 17.8467ZM22.3476 21.4611L20.301 17.2275L19.521 17.6045L21.5676 21.8382L22.3476 21.4611ZM22.1709 21.2116L21.948 21.2166L21.9672 22.0827L22.1901 22.0777L22.1709 21.2116ZM33.8725 25.93C32.1531 23.2149 28.6638 21.0676 22.1709 21.2116L22.1901 22.0777C28.4739 21.9384 31.6285 24.0059 33.1406 26.3935L33.8725 25.93ZM35.002 34.1831C35.5641 31.9486 35.5891 28.6404 33.8725 25.93L33.1406 26.3935C34.6905 28.8407 34.687 31.8842 34.1619 33.9718L35.002 34.1831ZM34.6335 35.4989L34.9991 34.1943L34.1649 33.9605L33.7993 35.2652L34.6335 35.4989ZM34.871 34.1485L33.9156 35.0703L34.5172 35.6937L35.4726 34.7719L34.871 34.1485ZM36.2659 30.2833C35.9851 32.0295 35.3264 33.4506 34.8119 34.2192L35.5318 34.7012C36.115 33.8298 36.8205 32.2914 37.1212 30.4208L36.2659 30.2833ZM35.4499 24.3962C36.4503 26.4655 36.5463 28.5392 36.2659 30.2833L37.1212 30.4208C37.4235 28.541 37.3232 26.2807 36.2299 24.0192L35.4499 24.3962ZM32.8451 21.7028C34.0189 22.4674 34.9493 23.3606 35.4499 24.3962L36.2299 24.0192C35.6342 22.7868 34.5617 21.787 33.3179 20.9769L32.8451 21.7028ZM28.7515 19.7719C30.2455 20.2975 31.6699 20.9374 32.8451 21.7028L33.3179 20.9769C32.0655 20.1612 30.5721 19.4941 29.039 18.9547L28.7515 19.7719ZM20.4073 17.9046C22.4983 18.1278 25.7624 18.7204 28.7515 19.7719L29.039 18.9547C25.9727 17.8761 22.6404 17.2718 20.4993 17.0432L20.4073 17.9046Z" fill="#F4F4F4"/>
</svg>
