<svg width="30" height="73" viewBox="0 0 30 73" fill="none" xmlns="http://www.w3.org/2000/svg">
<path d="M24.9307 0.949219V56.1164" stroke="#291D42" stroke-width="3.03059"/>
<path d="M19.3093 66.5016C15.8267 68.6339 12.8536 69.6073 10.39 69.4219C7.93267 69.2465 5.97063 67.9829 4.5039 65.6311C3.09932 63.379 2.86748 61.1249 3.80838 58.8688C4.28486 57.7371 5.06525 56.6121 6.14957 55.4938C7.24593 54.3681 8.66175 53.274 10.397 52.2116C13.8555 50.0941 16.8043 49.1217 19.2434 49.2946C21.6887 49.4774 23.6509 50.7547 25.1301 53.1264C26.5471 55.3985 26.7941 57.6502 25.8711 59.8815C25.4129 61.0158 24.6385 62.1371 23.548 63.2455C22.4574 64.3538 21.0445 65.4392 19.3093 66.5016ZM15.2177 60.7777C13.844 61.6188 12.0247 63.3299 11.0695 64.1213C10.1264 64.9053 9.41442 63.3472 8.91475 64.1213C7.89714 65.6669 8.60709 58.6274 8.91475 60.7777C10.4382 61.891 7.60302 60.5954 9.45344 60.3851C10.3695 60.2786 11.5622 57.6776 12.6856 57.1826C13.8272 56.6902 12.3892 56.9563 13.763 56.1152C15.1367 55.2741 11.7425 60.6353 12.6856 59.8514C13.6287 59.0674 10.5757 60.6383 11.0695 59.8815C12.0389 58.3654 12.5543 62.6488 12.1469 60.9188C10.6488 59.7834 15.0265 60.5968 13.2243 60.7777C12.3202 60.8767 12.1991 59.3965 11.0695 59.8815C9.93994 60.3665 16.5915 59.9366 15.2177 60.7777Z" fill="#291D42"/>
<path d="M15.919 60.3857C15.919 62.7439 14.2307 64.6556 12.1482 64.6556C10.0656 64.6556 8.37732 62.7439 8.37732 60.3857C8.37732 58.0275 10.0656 56.1158 12.1482 56.1158C14.2307 56.1158 15.919 58.0275 15.919 60.3857Z" fill="#291D42"/>
</svg>
