<svg width="28" height="68" viewBox="0 0 28 68" fill="none" xmlns="http://www.w3.org/2000/svg">
<path d="M23.0694 0V51.6796" stroke="#F4F4F4" stroke-width="3.03059"/>
<path d="M17.8521 61.4081C14.6196 63.4056 11.8601 64.3175 9.57346 64.1438C7.29261 63.9794 5.47149 62.7957 4.11011 60.5926C2.80641 58.4828 2.59122 56.3712 3.46454 54.2578C3.9068 53.1976 4.63114 52.1437 5.63758 51.0961C6.6552 50.0416 7.96932 49.0167 9.57997 48.0214C12.7901 46.0378 15.5271 45.1269 17.791 45.2889C20.0606 45.4601 21.8819 46.6566 23.2549 48.8784C24.5701 51.0068 24.7993 53.1162 23.9426 55.2065C23.5173 56.2691 22.7986 57.3195 21.7864 58.3578C20.7742 59.396 19.4627 60.4128 17.8521 61.4081ZM14.0545 56.046C12.7794 56.8339 11.0907 58.4369 10.2042 59.1782C9.32877 59.9127 8.66794 58.453 8.20415 59.1782C7.25963 60.6262 7.9186 54.0316 8.20416 56.046C9.61815 57.0889 6.98664 55.8753 8.70415 55.6782C9.55443 55.5785 10.6615 53.1419 11.7042 52.6782C12.7638 52.2169 11.4291 52.4662 12.7042 51.6782C13.9792 50.8903 10.8288 55.9127 11.7042 55.1782C12.5795 54.4438 9.74579 55.9154 10.2042 55.2065C11.1039 53.7862 11.5823 57.7988 11.2042 56.1782C9.81365 55.1145 13.8769 55.8766 12.2042 56.046C11.3651 56.1388 11.2526 54.7521 10.2042 55.2065C9.15571 55.6608 15.3295 55.258 14.0545 56.046Z" fill="#F4F4F4"/>
<path d="M14.7053 55.6788C14.7053 57.8879 13.1383 59.6788 11.2053 59.6788C9.27233 59.6788 7.70533 57.8879 7.70533 55.6788C7.70533 53.4696 9.27233 51.6788 11.2053 51.6788C13.1383 51.6788 14.7053 53.4696 14.7053 55.6788Z" fill="#F4F4F4"/>
</svg>
